<?xml version="1.0" encoding="UTF-8"?>
<svg id="Capa_1" xmlns="http://www.w3.org/2000/svg" width="770.1px" height="135px" version="1.1" viewBox="0 0 770.1 135">
  <!-- Generator: Adobe Illustrator 30.0.0, SVG Export Plug-In . SVG Version: 2.1.1 Build 123)  -->
  <defs>
    <style>
      .st0, .st1 {
        fill: #fff;
      }

      .st1 {
        fill-rule: evenodd;
      }
    </style>
  </defs>
  <g>
    <rect class="st0" x="87.81" y="93.66" width=".23" height="1.06"/>
    <rect class="st0" x="89.04" y="91.78" width=".32" height="1.47"/>
    <path class="st0" d="M60,21.61c.53,0,.96-.42.96-.95s-.42-.96-.95-.96-.96.42-.96.95h0c0,.53.42.95.95.96"/>
    <path class="st0" d="M47.23,25c.12-.02.24-.04.36-.04-.22-1.16-.38-2.34-.48-3.52.85,1.06,1.71,2.09,2.44,3.03.09-.04.19-.06.29-.07.27-1.3.56-2.59.87-3.88.38,1.14.8,2.27,1.14,3.46.21-.06.39-.13.6-.18s.42-.07.63-.11c-.6-1.45-1.16-3.06-1.86-5.05-.1.04-.21.08-.31.11-.11.02-.22.03-.33.04-.28,1.43-.64,2.77-.94,3.97-.87-1.05-1.74-2.09-2.56-3.16-.1.04-.2.08-.31.11-.11.02-.21.03-.32.03.18,1.98.35,3.79.42,5.38.13-.05.25-.09.36-.12"/>
    <path class="st0" d="M44.28,26.01c.11-.03.21-.05.32-.07.02-1.94.18-3.84.31-5.75-.11.05-.22.1-.33.14-.11.04-.23.07-.34.1.02,1.36-.04,2.74-.12,4.11-.86-1.07-1.77-2.09-2.54-3.19-.21.09-.42.19-.63.26s-.44.13-.66.19c1.26,1.43,2.49,2.86,3.69,4.37.09-.06.19-.11.3-.16"/>
    <path class="st0" d="M37.43,29.16c.09-.04.2-.08.29-.11l-1.65-3.39,1.15.43c1.19.44,2.36.94,3.61,1.44l.6-.28-2.33-4.8c-.09.06-.17.11-.27.16-.09.05-.19.08-.29.12l1.58,3.28c-1.53-.65-3.08-1.2-4.6-1.8l-.69.34,2.32,4.78c.09-.07.19-.13.28-.17"/>
    <path class="st0" d="M29.62,35.15c.51-.49.94-1.04,1.3-1.65l-1.44-1.6c-.13.14-.26.29-.41.42s-.3.24-.46.36l1.21,1.35c-.09.28-.26.54-.49.73-.88.79-1.92.65-2.82-.36-.87-.97-1.18-2.27-.22-3.14.45-.42,1.07-.58,1.66-.43l.08-.07c-.16-.22-.28-.47-.36-.73-.64.14-1.22.45-1.7.9-1.33,1.2-1.72,2.88-.43,4.32,1.23,1.37,2.86,1,4.08-.1"/>
    <path class="st0" d="M15.72,58.66c.02-.13.04-.26.07-.38s.08-.24.12-.37c-.18-.15-.48-.43-.7-.67l-.91-.97c.71-.17,1.43-.35,2.16-.52.04-.22.07-.45.12-.66s.13-.43.2-.65c-1.08.24-2.08.52-3.09.8l-.2.06c-.34-.4-.68-.79-1.02-1.19l-.84-.99c-.02.13-.04.26-.07.38-.03.12-.07.24-.11.36.51.55,1.03,1.06,1.54,1.6-.69.16-1.36.35-2.05.48-.04.23-.07.46-.13.68s-.13.44-.2.66l3.15-.85c.65.72,1.29,1.45,1.96,2.23"/>
    <path class="st0" d="M15.51,59.27c-.11,0-.22,0-.33-.01-.11-.02-.22-.05-.32-.09-.02.6-.08,1.2-.17,1.79l-1.94-.31.12-.8c.05-.32.13-.63.22-.93-.11,0-.22,0-.33-.01-.11-.02-.22-.05-.32-.09-.01.32-.03.64-.08.96l-.12.8-1.65-.26c.08-.6.21-1.18.39-1.76-.11,0-.22,0-.34-.01-.11-.02-.22-.05-.32-.09l-.46,2.93,5.21.83.44-2.95Z"/>
    <path class="st0" d="M16.76,82.49c-.25-.66-.59-1.28-1-1.85l-2.03.7c.08.18.16.36.23.54s.1.38.15.56l1.72-.59c.22.2.39.45.48.74.38,1.12-.16,2.03-1.43,2.47-1.23.42-2.54.2-2.96-1.03-.21-.57-.12-1.22.25-1.71l-.03-.1c-.27.06-.54.07-.81.05-.12.65-.06,1.31.16,1.93.58,1.7,1.97,2.71,3.8,2.09,1.71-.59,2.01-2.24,1.47-3.8"/>
    <path class="st0" d="M19.35,89.11c-.09-.18-.15-.36-.22-.54l-4.78,2.34c.1.17.2.33.29.51s.15.36.22.54l4.78-2.34c-.1-.17-.21-.33-.29-.51"/>
    <path class="st0" d="M20.11,90.68c-.16.15-.36.27-.58.33.36.48.69.98.99,1.5l-1.7.99-.4-.7c-.16-.28-.3-.57-.42-.86-.08.07-.17.14-.27.2-.1.05-.2.1-.31.14.2.25.37.52.54.79l.4.7-1.44.84c-.31-.51-.57-1.05-.8-1.6-.09.07-.18.14-.27.2-.1.05-.2.09-.31.13l1.48,2.57,4.57-2.65-1.48-2.58Z"/>
    <path class="st0" d="M27.46,102.21c.3-.33.82-.36,1.15-.06h0c.02.02.04.04.06.06.4.33.49.91.22,1.35l.11.1c.26-.21.54-.41.82-.58-.13-.42-.37-.8-.7-1.09-.66-.76-1.81-.85-2.58-.19h0c-.03.03-.06.05-.09.08-1.19,1.32.69,2.76-.01,3.54-.24.31-.7.37-1.01.13-.05-.04-.09-.08-.13-.13-.31-.28-.39-.73-.21-1.1l-.09-.08c-.23.15-.46.28-.7.4.1.43.33.81.66,1.1.58.66,1.59.73,2.26.15l.01-.01c.05-.05.11-.1.15-.15,1.27-1.38-.75-2.59.08-3.52"/>
    <path class="st0" d="M32.14,104.66c-1.61,1.07-3.27,2-4.92,2.95.1.06.2.13.3.2.1.07.19.15.27.23,1.11-.78,2.28-1.5,3.47-2.2-.4,1.31-.74,2.64-1.21,3.9.19.12.39.25.57.38s.35.29.52.44c.48-1.85.97-3.68,1.54-5.52-.1-.05-.2-.11-.29-.17-.09-.06-.17-.13-.25-.21"/>
    <path class="st0" d="M44.33,111.52l-1.4,3.49-.45-1.14c-.47-1.19-.89-2.39-1.34-3.66l-.61-.25-1.99,4.95c.1.02.2.06.3.1s.19.08.28.14l1.36-3.38c.55,1.57,1.17,3.1,1.75,4.63l.71.29,1.99-4.93c-.1-.03-.2-.06-.3-.09s-.21-.11-.3-.15"/>
    <path class="st0" d="M55.57,114.09l-.59,3.72-.7-1.01c-.72-1.05-1.4-2.13-2.13-3.26l-.65-.11-.83,5.27c.1,0,.21.01.31.03.1.02.2.04.3.07l.57-3.6c.88,1.41,1.84,2.76,2.74,4.12l.76.12.83-5.26c-.1,0-.21-.01-.31-.03-.1,0-.2-.04-.3-.06"/>
    <path class="st0" d="M58.27,114.21c-.19-.01-.39-.05-.58-.07l-.28,5.33c.2-.01.39-.02.58-.01s.39.04.58.07l.28-5.33c-.19,0-.39.02-.58.01"/>
    <path class="st0" d="M71.05,112.91c.05.1.09.2.13.31.03.11.04.22.06.33.55-.23,1.11-.43,1.69-.6l.54,1.9-.77.22c-.31.09-.62.16-.93.2.05.1.09.21.13.31.03.11.04.22.05.33.29-.13.59-.24.9-.33l.77-.22.46,1.61c-.57.18-1.16.31-1.75.39.11.2.17.42.18.64l2.84-.82-1.45-5.1-2.85.83Z"/>
    <path class="st0" d="M77.13,110.89c-.18.07-.37.12-.55.18l.96,2.39-.75.31c-.29.12-.59.2-.9.29.13.18.21.4.25.62.27-.16.55-.3.84-.42l.76-.31.62,1.55c-.55.23-1.12.42-1.7.57.06.1.11.2.16.3.04.11.07.21.09.32l2.74-1.11-1.99-4.95c-.18.1-.35.2-.53.26"/>
    <path class="st0" d="M82.01,109.81c-.22-.4-.08-.9.31-1.12.02-.01.05-.02.07-.04.44-.28,1.01-.19,1.35.2l.13-.07c-.12-.31-.22-.64-.3-.97-.44-.01-.87.11-1.25.34-.93.4-1.37,1.48-.97,2.42.01.03.03.07.04.1.89,1.54,2.83.19,3.35,1.1.22.33.13.79-.2,1.01h0c-.05.03-.1.06-.16.08-.36.21-.81.15-1.11-.14l-.1.06c.07.27.12.53.17.79.44.04.87-.06,1.24-.29.82-.36,1.19-1.31.83-2.13h0c-.03-.06-.06-.12-.09-.18-.91-1.64-2.69-.09-3.31-1.16"/>
    <path class="st0" d="M86.05,105.89c-.09.06-.19.11-.29.15.51,1.87.89,3.74,1.28,5.62.09-.08.18-.16.28-.23s.2-.13.3-.18c-.39-1.3-.72-2.64-1.01-3.99,1.12.79,2.27,1.53,3.32,2.36.18-.14.35-.29.54-.42s.39-.25.58-.36c-1.61-1.03-3.18-2.07-4.75-3.18-.08.09-.16.17-.25.23"/>
    <path class="st0" d="M92.01,100.87c-.07.07-.17.13-.25.19l2.51,2.8-1.22-.09c-1.27-.1-2.53-.25-3.86-.39l-.5.44,3.56,3.97c.07-.08.14-.16.21-.23.08-.07.16-.13.25-.19l-2.43-2.7c1.65.2,3.29.3,4.91.45l.57-.51-3.55-3.95c-.05.06-.12.14-.2.21"/>
    <path class="st0" d="M93.64,99.08c-.13.14-.28.27-.42.41l3.95,3.57c.12-.16.23-.32.36-.46s.28-.27.42-.41l-3.95-3.57c-.12.15-.23.31-.36.46"/>
    <path class="st0" d="M100.78,97.47c-.23.42-.49.83-.78,1.22l-3.8-2.88c-.11.17-.2.33-.32.49s-.25.3-.38.44l3.81,2.88c-.29.37-.59.72-.92,1.05.1.05.2.11.29.17.08.07.16.14.24.23l2.4-3.2c-.1-.05-.19-.1-.28-.17-.1-.07-.18-.15-.26-.23"/>
    <path class="st0" d="M99.95,90.08c-.05.09-.12.17-.18.25l3.21,1.94-1.19.27c-1.24.28-2.49.5-3.81.76l-.35.56,4.55,2.75c.04-.1.09-.19.14-.28s.11-.17.18-.25l-3.11-1.87c1.63-.3,3.24-.68,4.83-1.01l.39-.66-4.54-2.74c-.02.09-.07.19-.12.28"/>
    <path class="st0" d="M100.61,88.78c.22.04.43.13.61.27.17-.57.39-1.14.63-1.68l1.8.8-.33.74c-.13.29-.28.57-.45.84.11.03.22.06.32.1.1.05.2.11.29.17.09-.31.2-.61.32-.9l.33-.74,1.52.68c-.23.55-.51,1.09-.83,1.6.11.02.22.06.32.1.1.05.2.11.29.17l1.2-2.71-4.82-2.15-1.2,2.71Z"/>
    <path class="st0" d="M102.21,85.07c.11.02.22.04.33.07.1.04.2.09.3.15.13-.58.29-1.16.47-1.72l4.46,1.54c.05-.19.09-.38.15-.56s.15-.36.22-.54l-4.99-1.72-.94,2.78Z"/>
    <path class="st0" d="M104.82,74.29c-.02.11-.05.21-.09.32,1.7.93,3.29,1.96,4.91,2.98,0-.12.01-.24.03-.36s.05-.23.08-.35c-1.2-.62-2.39-1.32-3.56-2.04,1.34-.26,2.67-.58,4-.76.02-.22.03-.46.07-.68s.09-.45.14-.67c-1.85.44-3.69.86-5.57,1.22,0,.12,0,.23-.01.34"/>
    <path class="st0" d="M105.1,67.55c.03.19.06.39.07.58s0,.39-.01.58l5.31-.28c-.03-.19-.06-.39-.07-.58s0-.39.01-.58l-5.31.28Z"/>
    <path class="st0" d="M104.91,63.79c.03.11.05.22.06.33,0,.11-.01.22-.02.33,1.85.56,3.63,1.23,5.42,1.89-.02-.12-.04-.24-.04-.36-.01-.12-.01-.24,0-.36-1.31-.35-2.61-.79-3.91-1.25,1.26-.53,2.49-1.13,3.76-1.58-.03-.22-.06-.46-.07-.68s0-.46,0-.69c-1.72.84-3.43,1.63-5.2,2.37"/>
    <path class="st0" d="M98.22,44.46c.15-.17.33-.3.54-.38-.4-.45-.77-.92-1.11-1.41l1.61-1.13.46.66c.18.26.34.54.49.82.08-.08.16-.16.25-.22s.19-.11.29-.16c-.22-.23-.42-.48-.61-.74l-.46-.66,1.36-.96c.36.49.67,1,.94,1.53.08-.08.16-.15.25-.22.1-.06.2-.11.3-.16l-1.7-2.43-4.32,3.04,1.71,2.42Z"/>
    <path class="st0" d="M88.33,33.31c.07.07.14.15.21.22l2.51-2.8.04,1.23c.03,1.28.02,2.55.02,3.9l.48.45,3.56-3.96c-.09-.06-.17-.12-.25-.19s-.15-.15-.22-.22l-2.43,2.7c.02-1.67-.05-3.32-.06-4.95l-.57-.51-3.54,3.95c.09.04.18.1.25.18"/>
    <path class="st0" d="M79.04,27.53c.12.05.24.09.36.15s.22.13.33.2c.19-.14.53-.37.81-.54l1.14-.67c.01.74.02,1.48.01,2.23.21.09.42.17.61.27s.39.23.58.34c.02-1.11-.04-2.15-.08-3.2l-.01-.2c.46-.24.92-.49,1.38-.73l1.15-.6c-.12-.04-.24-.1-.36-.16-.11-.06-.22-.12-.33-.19-.65.38-1.26.77-1.89,1.14,0-.7-.03-1.41,0-2.11-.21-.09-.43-.17-.63-.28s-.4-.23-.6-.35l.12,3.27c-.83.5-1.68.96-2.59,1.43"/>
    <path class="st0" d="M78.59,26.94c.05-.1.1-.2.16-.3-.58-.15-1.15-.35-1.7-.57l.74-1.83.75.3c.3.12.58.26.86.42.02-.11.05-.22.09-.32.05-.1.1-.2.16-.3-.31-.08-.61-.17-.91-.29l-.75-.3.62-1.55c.56.21,1.1.47,1.62.77.02-.11.05-.22.09-.33.05-.1.1-.2.16-.3l-2.73-1.11-1.98,4.91,2.73,1.12c.02-.1.05-.21.09-.32"/>
    <path class="st0" d="M74.83,25.32c.03-.11.07-.21.12-.32-.59-.08-1.17-.19-1.75-.33l1.14-4.6c-.19-.03-.39-.06-.57-.1s-.37-.12-.56-.18l-1.28,5.14,2.85.71c.01-.1.03-.21.05-.32"/>
    <path class="st0" d="M59.9,120.79c-28.75.12-52.15-23.09-52.27-51.83S30.72,16.81,59.47,16.69c28.75-.12,52.15,23.09,52.27,51.84h0v.21c.05,28.69-23.16,51.99-51.84,52.05M59.9,15.59c-29.36-.12-53.25,23.58-53.37,52.93s23.58,53.25,52.93,53.37,53.25-23.58,53.37-52.93v-.22c.06-29.29-23.64-53.09-52.93-53.15h0"/>
    <path class="st0" d="M69.02,20.28l.4,1.9-1.4-.22,1-1.68ZM66.95,23.89c.23-.51.49-.95.79-1.5l1.78.28c.12.55.2,1.1.29,1.69.22.02.44.03.66.07s.43.09.65.14l-1.29-5.68c-.1,0-.2-.01-.3-.02-.1-.02-.19-.04-.29-.07l-3.03,4.98c.13.01.25.02.37.03s.24.06.37.08"/>
    <path class="st0" d="M87.46,27.93l-.54,1.86-1.13-.86,1.67-1ZM83.66,29.9c.1.07.18.16.28.24.44-.34.88-.61,1.4-.96l1.44,1.09c-.15.54-.33,1.06-.54,1.63.19.12.38.24.56.37s.34.28.51.43l1.51-5.62c-.09-.05-.17-.1-.25-.16s-.15-.13-.22-.2l-5,2.97c.11.07.22.14.31.21"/>
    <path class="st0" d="M97.47,35.55c.73.81.77,1.72-.32,2.69-1.35,1.22-2.29.97-3,.17l-.44-.49,3.25-2.94.51.57ZM92.6,37.35l1.45,1.62c.91,1.15,2.58,1.35,3.73.43h0c.08-.06.16-.13.23-.2,1.01-.77,1.21-2.21.45-3.22v-.01c-.05-.07-.1-.13-.16-.19l-1.77-1.98-3.93,3.55Z"/>
    <path class="st0" d="M103.51,43.92c.24.41.58.88.09,1.31-.1.09-.2.16-.32.23-.42.34-1.03.29-1.38-.13-.09-.11-.16-.23-.19-.37l1.8-1.04ZM99.01,45.85c.1.17.17.35.26.53l2.15-1.25.03.05c-.17.3-.37.66-.49.87l-.95,1.62c.13.19.27.38.38.59s.22.42.32.63l.26-.5c.39-.76.77-1.54,1.2-2.28.43.56,1.21.71,1.81.35.42-.22.67-.67.62-1.14-.08-.42-.25-.82-.49-1.17l-.82-1.44-4.6,2.67c.12.14.23.3.32.47"/>
    <path class="st0" d="M106.92,51.18l.16.46c.13.38-.15.82-.74,1.02-.43.2-.94.07-1.22-.31-.09-.15-.16-.31-.22-.47l2.02-.7ZM102.13,52.21c.06.18.1.37.15.56l2.2-.76c.45,1.33,1.06,2.18,2.36,1.73.83-.29,1.05-.98.7-2l-.62-1.81-5.03,1.74c.09.19.18.36.24.54"/>
    <path class="st0" d="M108.4,55.89l.11.47c.09.4-.24.8-.84.94-.45.16-.94-.03-1.18-.44-.07-.16-.13-.32-.17-.49l2.08-.48ZM103.53,56.42c.04.19.06.39.09.58l2.27-.53c.31,1.36.83,2.28,2.17,1.97.85-.2,1.14-.86.9-1.92l-.43-1.87-5.18,1.2c.07.2.14.38.18.57"/>
    <path class="st0" d="M106.25,78.55l1.58,1.15-1.92.23.34-1.38ZM104.53,76.96c-.03.12-.07.23-.11.35.48.27.9.58,1.42.92l-.43,1.76c-.56.08-1.11.11-1.7.14-.04.22-.07.44-.12.66s-.13.43-.2.64l5.75-.8c.01-.1.03-.2.05-.29.02-.1.06-.19.09-.28l-4.68-3.46c-.03.12-.04.24-.07.36"/>
    <path class="st0" d="M68.45,117.83c-.05-.12-.08-.25-.1-.38-.18-.51.09-1.07.6-1.26.13-.05.27-.06.4-.05l.36,2.06c-.46.08-1.02.24-1.26-.37M69.44,113.29c-.19.04-.39.05-.58.06l.43,2.46-.05.01c-.22-.26-.49-.58-.64-.76l-1.19-1.45c-.22.06-.45.12-.68.16s-.47.06-.7.08l.38.42c.58.63,1.18,1.25,1.73,1.91-.67.21-1.08.89-.95,1.59.06.47.4.86.86.98.42.06.85.04,1.26-.07l1.62-.29-.92-5.25c-.19.06-.37.12-.57.15"/>
    <path class="st0" d="M63.44,118.98c-1.09.06-1.81-.48-1.89-1.94-.09-1.82.69-2.4,1.76-2.45l.66-.03.23,4.39-.76.03ZM62.94,114.15c-1.47-.01-2.68,1.18-2.69,2.66,0,.1,0,.19.01.29-.05,1.26.94,2.33,2.2,2.38h.26l2.65-.14-.28-5.29-2.15.1Z"/>
    <path class="st0" d="M47.53,116.56l-.23-1.93,1.38.35-1.15,1.58ZM49.91,113.14c-.27.49-.58.91-.91,1.43l-1.75-.44c-.08-.56-.11-1.11-.14-1.71-.22-.04-.44-.07-.66-.12s-.42-.13-.64-.2l.79,5.77c.1.01.2.03.29.05.1.02.19.05.28.09l3.45-4.69c-.12-.02-.25-.04-.37-.07s-.23-.07-.34-.11"/>
    <path class="st0" d="M35.66,112.89l-.65-.39c-.94-.57-1.23-1.42-.48-2.67.93-1.56,1.9-1.6,2.82-1.05l.56.34-2.25,3.77ZM37.28,108.22c-1.21-.83-2.86-.53-3.7.68h0c-.06.08-.11.17-.16.26-.75,1.03-.52,2.47.51,3.21h0c.07.05.14.09.21.14l2.27,1.37,2.72-4.54-1.85-1.12Z"/>
    <path class="st0" d="M20.76,100.29l-.47-.6c-.67-.86-.65-1.76.5-2.66,1.43-1.12,2.35-.81,3.01.04l.41.52-3.45,2.7ZM23.94,96.51c-.83-1.21-2.48-1.53-3.69-.7-.08.06-.17.12-.24.19-1.06.69-1.36,2.12-.67,3.18h0c.05.07.1.14.15.2l1.63,2.1,4.16-3.26-1.34-1.71Z"/>
    <path class="st0" d="M10.7,78.95c-.08-.47-.24-1.03.37-1.26.12-.05.25-.08.37-.11.51-.18,1.07.09,1.25.6h0c.05.13.06.27.05.41l-2.04.36ZM15.58,78.68c-.03-.19-.04-.39-.06-.58l-2.45.43-.01-.05c.26-.22.57-.5.76-.65l1.44-1.19c-.06-.23-.12-.45-.16-.68s-.06-.47-.09-.7l-.42.38c-.63.58-1.25,1.18-1.91,1.73-.21-.67-.89-1.08-1.58-.95-.47.06-.86.4-.97.86-.07.42-.04.85.06,1.27l.29,1.63,5.23-.93c-.04-.19-.1-.38-.13-.57"/>
    <path class="st0" d="M12.63,72.09l.07,1.42-1.84-.64,1.77-.78ZM14.85,74.89c-.02-.12-.04-.25-.04-.37v-.37c-.54-.12-1.03-.29-1.63-.46l-.1-1.81c.51-.24,1.02-.43,1.59-.64-.03-.22-.06-.44-.07-.67s0-.44,0-.67l-5.25,2.45c.02.1.03.19.04.29s0,.2-.01.3l5.47,1.95Z"/>
    <path class="st0" d="M11.84,65.74l-2.07-.15c.03-.47.01-1.06.66-1.14.13-.02.26-.02.39-.01.54-.05,1.02.34,1.07.88.01.15,0,.29-.05.42M14.57,66.52c.01-.19.05-.39.08-.58l-2.48-.18v-.05c.31-.15.67-.34.89-.44l1.69-.81c0-.23-.01-.47.01-.7s.06-.47.09-.7l-.5.27c-.75.41-1.49.85-2.27,1.22-.04-.71-.6-1.27-1.31-1.31-.47-.06-.93.18-1.15.6-.17.39-.25.82-.24,1.25l-.11,1.65,5.3.37c0-.2-.01-.39,0-.59"/>
    <path class="st0" d="M16.21,46.01l1.92.21-.64,1.27-1.28-1.48ZM18.81,49.42c.06-.11.12-.21.19-.31-.41-.38-.75-.77-1.18-1.22l.82-1.61c.56.05,1.1.14,1.69.25.09-.21.17-.42.27-.62s.22-.38.34-.58l-5.78-.52c-.03.09-.07.19-.11.27-.04.09-.1.17-.15.25l3.78,4.43c.03-.12.07-.23.13-.34"/>
    <path class="st0" d="M18.21,40.67c.28-.38.58-.88,1.17-.59.12.05.23.12.33.2.48.25.67.85.42,1.33-.06.12-.15.23-.26.32l-1.66-1.26ZM21.74,44.07c.12-.16.25-.3.38-.44l-1.99-1.5.03-.04c.34.04.75.08.99.12l1.85.24c.13-.2.25-.4.39-.58s.3-.37.46-.54l-.57-.05c-.85-.06-1.71-.11-2.56-.22.35-.61.18-1.39-.39-1.81-.36-.3-.87-.35-1.29-.13-.35.24-.65.55-.88.91l-.99,1.32,4.24,3.21c.12-.16.21-.33.33-.49"/>
    <path class="st0" d="M22.33,36.86l1.8.7-.95,1.06-.85-1.76ZM23.96,40.83c.08-.09.17-.17.26-.26-.3-.47-.53-.94-.83-1.48l1.21-1.35c.53.19,1.02.43,1.57.68.14-.18.26-.36.42-.52s.31-.31.48-.47l-5.45-2c-.05.08-.11.16-.18.24-.07.07-.14.14-.22.2l2.51,5.26c.07-.11.14-.21.23-.3"/>
    <path class="st0" d="M31.19,27.35c.95-.67,1.99.01,2.56.83.74,1.06.98,2.35.01,3.03-.95.67-1.94.05-2.52-.77-1-1.43-.94-2.47-.05-3.09M33.99,31.61c1.35-.79,1.8-2.53,1.01-3.88h0c-.03-.06-.07-.12-.11-.17-.76-1.23-2.37-1.61-3.6-.86-.11.07-.22.15-.33.24-1.34.76-1.81,2.47-1.05,3.82h0c.04.08.09.16.15.23.75,1.23,2.35,1.63,3.58.88.13-.08.24-.16.35-.26"/>
    <path class="st0" d="M59.9,111.89c-23.83.1-43.23-19.14-43.33-42.97-.1-23.83,19.14-43.22,42.97-43.32s43.23,19.14,43.33,42.97h0v.18c.04,23.77-19.2,43.09-42.97,43.14M103.95,68.74c-.1-24.33-19.91-43.98-44.24-43.88S15.74,44.77,15.84,69.11c.1,24.26,19.8,43.88,44.06,43.88s44.06-19.73,44.06-44.06c0-.07,0-.13-.01-.19"/>
    <path class="st0" d="M72.62,48.83l3.41,3.42-3.41,3.42v-6.84ZM69.11,59.21l-3.28,3.3v-20.49l3.28,3.29v13.9ZM63.33,38.51c1.42-.21,2.77-.71,3.98-1.49.13.06.25.11.37.17-1.06.98-2.38,1.63-3.8,1.87l-.55-.55ZM60.53,35.69l-2.37,2.38c-1.33-.18-2.62-.61-3.78-1.28,4-1.5,8.4-1.5,12.39,0-1.19.68-2.5,1.12-3.86,1.29l-2.38-2.39ZM62.32,66.02l-1.78,1.79-1.78-1.79v-27.53l1.78-1.79,1.78,1.79v27.53ZM57.18,39.06c-1.41-.24-2.72-.88-3.78-1.84.14-.07.29-.14.44-.2,1.18.76,2.51,1.27,3.9,1.48l-.56.56ZM53.07,35.64c1.02-.49,2.09-.86,3.2-1.09l-.13.23c-.13.23-.05.52.17.65l.33.19c-1.06.23-2.09.56-3.09,1l.07-.14c.12-.24.03-.53-.2-.65l-.35-.19ZM57.47,34.43l-.14-.08c.84-.13,1.69-.21,2.55-.24l-.16.2c-.17.2-.14.5.06.67l.26.22c-.88.03-1.75.11-2.61.26l.22-.38c.12-.23.05-.52-.18-.65M61.1,34.19l-.11-.09c.93.02,1.87.1,2.79.25l-.07.04c-.23.13-.3.42-.17.65l.24.42c-.96-.17-1.92-.26-2.89-.28l.27-.32c.16-.2.14-.5-.06-.67M52.8,34.84l-.04-.11c-.99-1.18-2.15-2.21-3.43-3.06.33.09.67.16,1.02.2.2.03.39.03.59.01v-.24c0-.04.06-.66.35-.84.43-.26,1.44-.35,1.43.38l-.1.01c-.09.01-.17.02-.26.03-1.09.22-.2,2.29,1.1,2.21.93-.06,1.73-.66,2.06-1.53.09-.24.16-.49.2-.74-.5-.14-.79-.67-.65-1.17s.67-.79,1.17-.65c.5.14.79.67.65,1.17-.06.23-.21.42-.41.54l-.12.09s.1.22.13.3c.25.8.94,1.38,1.77,1.5,2.14.06,2.06-3.09.05-3.18.17-.6.73-1.01,1.36-.97l.16.02c.16-.65.42-1.27.75-1.86.3.59.53,1.21.68,1.86l.16-.02c.63-.04,1.19.37,1.36.97-2.01.09-2.09,3.23.05,3.18.83-.12,1.51-.7,1.76-1.5.03-.08.13-.3.13-.3l-.12-.08c-.44-.27-.58-.86-.3-1.3.27-.44.86-.58,1.3-.3s.58.86.3,1.3c-.12.2-.31.34-.54.41.04.25.11.5.2.74.33.87,1.14,1.47,2.06,1.53,1.31.08,2.19-1.99,1.11-2.21-.08-.02-.17-.03-.26-.03l-.1-.01c0-.73,1.01-.64,1.43-.38.29.18.35.8.35.84l.02.19c.05.01.11.02.16.03,0,0,.22.02.41.01.28-.01.56-.05.83-.12-1.23.82-2.32,1.82-3.25,2.97l-.04.11-.04.38c-2.42-1.1-5.05-1.64-7.7-1.59-2.65-.05-5.29.49-7.7,1.59l-.04-.38ZM67.36,36.51c-.93-.39-1.89-.69-2.87-.9l.38-.22c.23-.13.3-.42.17-.65h0l-.09-.16c1.01.22,1.98.55,2.92.99l-.39.26c-.22.16-.28.46-.12.68h0M55.24,62.5l-3.28-3.3v-13.9l3.28-3.29v20.49ZM48.45,55.68l-3.41-3.42,3.41-3.42v6.84ZM64.29,39.46c1.56-.28,2.98-1.09,4.03-2.29.03-.04.05-.09.05-.15l.35-.24c.22-.15.28-.45.13-.67l-.2-.3c.01-.02.02-.05.02-.08l.09-.77c1.24-1.44,2.69-2.69,4.31-3.7l-.22-.42s-.77.3-1.31.44c-.3.08-.61.12-.92.12-.03-.4-.24-.76-.55-1-.93-.56-2.41-.2-2.12,1.07l.06.24c.15-.03.3-.04.45-.04.09,0,.18.01.26.04.27.22-.34,1.3-1.04,1.26-.85-.09-1.55-.69-1.78-1.52.65-.43.84-1.31.41-1.96s-1.31-.84-1.96-.41-.84,1.31-.41,1.96c.06.1.14.19.23.27-.01.03-.04.08-.07.16-.21.53-.68.92-1.25,1.01-.61.01-1.11-.48-1.12-1.09s.48-1.11,1.09-1.12h.03c.21.03.41.1.59.2l-.09-.47c-.02-.09-.04-.19-.07-.27-.19-.79-.88-1.36-1.69-1.39-.2-.77-.54-1.5-1.01-2.15-.43.67-.78,1.39-1.03,2.15-.81.03-1.51.6-1.69,1.39-.03.09-.05.18-.07.27l-.09.47c.19-.1.39-.17.59-.2.61-.01,1.11.48,1.12,1.09s-.48,1.11-1.09,1.12h-.03c-.57-.09-1.04-.47-1.25-1.01-.03-.07-.06-.12-.07-.16.58-.53.61-1.43.08-2-.53-.58-1.43-.61-2-.08s-.61,1.43-.08,2h0c.08.08.17.16.26.22-.22.82-.93,1.42-1.77,1.52-.7.04-1.31-1.05-1.04-1.26.09-.02.17-.03.26-.04.15,0,.3.03.44.06l.06-.26c.28-1.27-1.19-1.63-2.12-1.07-.32.24-.52.6-.55,1-.31,0-.62-.04-.92-.12-.55-.14-1.31-.44-1.31-.44l-.22.42c1.61,1.01,3.06,2.26,4.31,3.7l.08.7c-.04.04-.07.08-.09.12l-.24.44c-.12.24-.04.53.2.65l.47.25c.01.04.02.08.05.12,1.05,1.16,2.44,1.94,3.98,2.22l-12.78,12.8,16.5,16.57,16.5-16.56-12.75-12.81Z"/>
    <rect class="st0" x="79.77" y="79.92" width=".23" height="1.06"/>
    <rect class="st0" x="77.19" y="79.92" width=".23" height="1.06"/>
    <rect class="st0" x="78.42" y="78.04" width=".32" height="1.46"/>
    <rect class="st0" x="74.09" y="72.98" width=".23" height="1.06"/>
    <rect class="st0" x="71.5" y="72.98" width=".23" height="1.06"/>
    <path class="st0" d="M70.68,66.88l-.09.03c-.17.05-.26.22-.21.39.03.1.11.18.22.21-.03.02-.06.05-.09.07l-.38.38c-.2.2-.2.53,0,.73l.38.38c.07.07.15.11.24.14l-.4.12h-.45s-.01,11.72-.01,18.94c0,3.31.34,4.48,2.19,6.61,1.69,1.8,3.69,3.28,5.9,4.37,1.03.53,2.13.89,3.27,1.08,1.97,0,6.09-2.82,7.49-4.07,1.24-1.1,2.29-2.39,3.11-3.83l.03-.05c.16-.36.3-.72.42-1.1.08-.23.13-.48.16-.72h.01l-.02-21.24h-.32l-.28-.12c.1-.02.18-.07.25-.14l.38-.38c.2-.2.2-.53,0-.73l-.38-.38c-.04-.04-.08-.07-.12-.09.16-.06.25-.24.19-.4-.03-.09-.1-.15-.18-.19l-.42-.14c-3.22-1.03-6.59-1.53-9.98-1.49-3.56.03-7.09.53-10.51,1.5l-.4.12ZM91.84,90.56h-5.27v-.5.19-6.68h5.26l.01,6.99ZM90.87,92.85c-.38.58-.81,1.13-1.27,1.66v-.33c-.06-.12-.19-.2-.32-.2-.16.02-.31.09-.43.2v1.12c-.17.17-.35.34-.53.5-.26.23-.65.54-1.1.87h-.07v-.66h.44v-4.01h.66v.98h.32v-2.06h1.3v2.06h.35v-.98h.65v.85ZM86.57,83.32h-.37v-13.38h.38v13.38h-.01ZM82.32,93.32c-.55-.82-.91-1.76-1.02-2.74h5.25v6.57l-.28.19c-.39-.26-.76-.54-1.12-.85-1.07-.94-2.02-2.01-2.83-3.17M81.24,99.7c-1.05-.19-2.06-.53-3.01-1.02-.73-.37-1.43-.79-2.1-1.26,2.06-1.23,4.58-3.83,5.08-6.23.65,1.99,1.84,3.75,3.44,5.1.06.1.15.18.26.23.38.33.78.64,1.2.92-1.67,1.12-3.74,2.27-4.87,2.26M75.88,97.26l.47-1.17v.99c-.13.09-.26.17-.38.24l-.09-.06ZM77.57,93.08v3.08c-.2.17-.39.32-.58.47v-2.1l.58-1.45ZM75.81,84.11l2.59,6.48-2.59,6.41v-12.89ZM76.34,83.61v1.38l-.53-1.34v-.05l.53.01ZM78.76,91.51v3.52c-.18.19-.37.38-.57.57v-4.08l.29-.72.28.71ZM78.19,83.61h.61v5.97l-.31.78-.3-.74v-6.01ZM80.02,83.61v2.93l-.6,1.5c-.01-.74,0-4.01,0-4.44l.6.01ZM81.02,83.61v.45l-.39.96c0-.36.01-1.2.02-1.41,0,0,.37,0,.37,0ZM77.58,83.61v4.5l-.62-1.56v-2.93l.62-.01ZM76.51,82.97v-.66h.44v-4.02h.66v.99h.32v-2.06h1.3v2.06h.36v-.99h.65v4.01h.43v.66h-1.7v-2.49c-.06-.12-.19-.2-.32-.2-.16.01-.31.09-.43.2v2.49l-1.71.01ZM79.71,93.9c-.1.13-.2.26-.31.4v-1.18l.31.78ZM78.58,90.58l2.54-6.38v6.39c-.12,1.15-.56,2.25-1.28,3.15l-1.26-3.16ZM71.27,75.36v-4.01h.66v.98h.32v-2.06h1.3v2.06h.35v-.98h.64v4.01h.43v.66h-1.7v-2.49c-.06-.12-.19-.2-.32-.2-.16.01-.31.09-.43.2v2.49h-1.71v-.66h.46ZM75.45,67.57l.38.38c.03.03.05.05.08.07-1.58.24-3.13.59-4.66,1.04l.36-.36c.2-.2.2-.53,0-.73l-.38-.38c-.07-.07-.16-.12-.26-.14,1.64-.48,3.31-.84,5-1.08-.05.03-.1.06-.14.1l-.38.38c-.2.19-.2.51,0,.72M81.76,83.32h-.41v-13.38h.41v13.38ZM84.94,69.94h.59v13.38h-.59v-13.38ZM83.68,69.94h.58v13.38h-.58v-13.38ZM82.43,69.94h.59v13.38h-.59v-13.38ZM83.92,87.15c-.16.01-.31.09-.43.2v2.49h-1.71v-.66h.44v-4.01h.67v.98h.32v-2.06h1.3v2.06h.35v-.98h.64v4.01h.43v.66h-1.7v-2.49c-.05-.12-.18-.19-.31-.2M91.36,67.57l-.38.38c-.2.2-.2.53,0,.73h0l.3.31c-1.39-.46-2.82-.81-4.27-1.03.02-.02.04-.03.06-.05l.38-.38c.2-.2.2-.53,0-.73l-.38-.38c-.05-.05-.11-.09-.18-.12,1.61.24,3.19.62,4.73,1.13-.1.02-.19.07-.26.14M91.53,70.89v-.95h.29v.23l-.29.72ZM90.29,73.98v-4.04h.64v2.45l-.64,1.59ZM89.13,77.33l.22-.54.33.83v5.71h-.55v-6ZM89.13,75.79v-5.85h.55v5.57l-.33.83-.22-.55ZM87.9,72.67v-2.73h.63v4.32l-.63-1.59ZM86.8,69.94h.49v1.23l-.49-1.23ZM87.3,81.95v1.38h-.55l.55-1.38ZM88.53,78.86v4.46h-.63v-2.88l.63-1.58ZM86.74,82.89l.01-12.65,2.52,6.33-2.53,6.32ZM90.94,80.73v2.6h-.64v-4.18l.64,1.58ZM91.84,83.33h-.3v-1.09l.3.75v.34ZM89.45,76.57l2.38-5.94.01,11.9-2.39-5.96ZM85.98,67.53l.31.31c-1.66-.18-3.32-.26-4.99-.23.02-.01.03-.03.05-.04l.38-.38c.2-.2.2-.53,0-.73l-.38-.38c-.07-.07-.16-.12-.26-.14h.5c1.7-.01,3.4.11,5.09.34-.12.01-.23.06-.32.15l-.38.38c-.21.2-.21.52,0,.72M81,68.23c1.83-.04,3.65.05,5.47.27,1.3.2,2.59.48,3.85.83h-17.7c2.74-.71,5.56-1.08,8.38-1.1M80.24,67.19l.38.38c.02.02.03.03.05.04-1.37.02-2.73.12-4.09.31l.35-.35c.2-.2.2-.53,0-.73l-.38-.38c-.08-.08-.18-.13-.28-.14,1.52-.22,3.05-.34,4.59-.38-.09.02-.17.07-.24.14l-.38.38c-.2.2-.2.53,0,.73M75.73,83.32h-5.23l.01-6.79h5.22v-6.59h5.46v6.61h-5.46v6.77ZM75.64,97.09c-.17-.12-.34-.25-.51-.37v-13.11h.47l.03.08.01,13.4ZM74.48,96.21c-.2-.16-.4-.33-.59-.5v-12.1h.59v12.6ZM73.23,95.09c-.2-.2-.39-.4-.57-.61v-10.87h.57v11.48ZM72,93.69c-.21-.29-.4-.59-.57-.9v-9.18h.57v10.08ZM70.77,91.08c-.21-.96-.3-1.94-.27-2.93v-4.55h.27v7.48Z"/>
    <rect class="st0" x="72.74" y="71.1" width=".32" height="1.46"/>
    <rect class="st0" x="85.04" y="86.8" width=".23" height="1.06"/>
    <rect class="st0" x="82.46" y="86.8" width=".23" height="1.06"/>
    <rect class="st0" x="83.69" y="84.92" width=".32" height="1.46"/>
    <path class="st0" d="M49.72,75.86h-10.2v-5.21h10.2v5.21ZM49.72,85.25h-10.2v-5.16h10.2v5.16ZM49.45,91.83c-.4,1.3-1.09,2.5-2.02,3.5h-7.9v-5.08h10.17c-.04.53-.12,1.06-.25,1.58M39.18,69.99h-4.67c.38-.09.78-.17,1-.2,1.33-.22,2.67-.34,4.01-.38,1.35.03,2.69.15,4.02.38.39.06.75.14,1.05.2h-5.41ZM38.72,72.51h-1.61v-.11c.15-.2.31-.4.49-.58-.11-.11-.22-.24-.32-.36-.06-.1-.09-.21-.08-.33.01-.1-.02-.38.7-.37s.75.24.74.4c-.05.26-.19.49-.38.66l.48.59-.02.1ZM38.72,83.28h-1.61c-.01-.04-.01-.07,0-.11.15-.2.32-.4.49-.58-.11-.11-.22-.24-.32-.36-.06-.1-.09-.21-.08-.32.01-.1-.02-.38.7-.37s.75.24.74.4c-.05.26-.19.49-.38.66l.48.58-.02.1ZM38.72,99.12h-1.61v-.11c.15-.2.31-.4.49-.58-.11-.11-.22-.24-.32-.36-.06-.1-.09-.21-.08-.32.01-.1-.02-.38.7-.37s.75.24.74.4c-.05.26-.19.49-.38.66l.48.58-.02.1ZM32.66,86.02l3.71,3.73v.74l-4.45-4.47h-.82c0-5.11.01-13.02.01-13.02h5.26v13.03h-.55l.55.55v.75l-1.3-1.3h-.83l2.13,2.13v.75l-2.88-2.89h-.83ZM36.38,92.08l-5.27-5.29v-.74l5.27,5.29v.74ZM36.38,93.66l-5.27-5.29v-.74l5.27,5.29v.74ZM36.38,95.25l-5.26-5.29v-.75l5.27,5.29-.01.75ZM33.29,93.62c-.85-.74-1.54-1.65-2.02-2.67l4.2,4.22c-.8-.41-1.54-.93-2.18-1.55M32.64,95.51h-1.62c-.01-.04-.01-.07,0-.11.15-.2.31-.4.49-.58-.11-.11-.22-.23-.32-.36-.06-.1-.09-.21-.09-.33.01-.1-.01-.38.7-.38.72,0,.75.24.74.41-.05.25-.19.49-.38.66l.48.59v.1ZM32.93,72.39c.15-.2.31-.4.49-.58-.11-.11-.22-.23-.32-.36-.06-.1-.09-.21-.08-.33.01-.1-.01-.38.7-.37s.74.24.74.4c-.05.26-.19.49-.38.66l.48.58v.11h-1.62c-.02-.04-.02-.07-.01-.11M32.28,67.7c.1-.13.24-.23.4-.27.56-.13,1.01.36,1.31.73.07-.39.21-.76.4-1.1.22-.37.39-.43.73-.09-.43.11-.71.52-.65.96.05.5.24.84.78.79.67-.12,1.19-.66,1.28-1.33.03,0,.06-.01.09-.02.21.6.74,1.03,1.37,1.11,1.4.04,1.74-1.97-.21-1.9h-.07c.18-.29.49-.46.83-.47.16-.02.45-.04.45-.04-.01-.29.04-.58.13-.85.11-.19.26-.36.43-.51.17.14.32.31.43.51.09.28.14.56.13.85,0,0,.29.02.45.04.34.01.65.18.83.47h-.07c-1.96-.08-1.61,1.94-.21,1.9.63-.08,1.16-.51,1.37-1.11.03.01.06.01.09.02.09.68.6,1.22,1.27,1.34.54.05.73-.29.79-.79.04-.44-.22-.84-.63-.99.31-.31.47-.25.7.12.19.34.32.71.39,1.1.29-.38.75-.86,1.31-.73.16.04.31.13.4.27-.72.48-1.23,1.21-1.43,2.05-.28-.07-.88-.21-1.67-.35-1.31-.23-2.64-.36-3.97-.39h-.36c-1.33.02-2.66.15-3.97.39-.8.14-1.4.28-1.67.35-.22-.84-.73-1.58-1.45-2.06M36.81,66.63c0,.21-.18.39-.39.39s-.39-.18-.39-.39.17-.39.39-.39.39.17.39.39c0-.01,0,0,0,0h0M42.64,67.02c-.22,0-.39-.17-.39-.39s.17-.39.39-.39.39.17.39.39h0c0,.21-.18.38-.39.39M44.23,67.9c-.03.29-.07.48-.37.45-.49-.11-.86-.51-.94-1.01.39-.15.59-.6.43-.99-.15-.39-.6-.59-.99-.43-.39.15-.59.6-.44.99.04.1.1.2.19.28-.02.06-.04.12-.06.18-.18.39-.54.67-.97.74-.34.01-.78-.26-.77-.56.01-.62.86-.66,1.29-.53l.3.09c-.18-.99-.53-1.29-1.46-1.39,0-.23-.05-.46-.15-.67-.13-.27-.33-.49-.59-.64-.06-.03-.11-.05-.17-.07-.06.02-.12.04-.17.07-.26.15-.46.37-.59.64-.1.21-.15.44-.15.67-.93.1-1.27.4-1.45,1.39l.3-.09c.42-.13,1.27-.09,1.29.53.01.3-.43.56-.77.56-.43-.06-.79-.34-.97-.74-.03-.06-.05-.12-.06-.18.31-.29.32-.78.03-1.09s-.78-.32-1.09-.03-.32.78-.03,1.09c.08.08.17.15.28.19-.07.5-.44.9-.94,1.01-.31.03-.34-.15-.38-.45-.06-.59.61-.61.98-.63l-.22-.29c-.76-1.01-1.38-.7-1.79.41-.15-.11-.32-.2-.49-.26-.24-.54-.33-1.13-.26-1.72.04-.19.07-.38.08-.58,2.07-.6,4.22-.91,6.39-.91,1.63.01,3.26.19,4.86.54.68.15,1.22.3,1.56.4.01.2.04.4.08.59.06.56-.02,1.13-.23,1.66-.19.06-.38.16-.54.28-.4-1.12-1.03-1.43-1.79-.41l-.22.29c.37.01,1.05.03.99.62M32.68,62.95c-.2-.21-.43-.39-.69-.54l-.07-.04c.46-.24.89-.36,1.26.15l.32-.03c.05-.1.11-.19.17-.28.41-.41.82.09.58.29-.12.11-.21.25-.27.4-.03.07-.04.15-.05.22v.03c.02.41.37.72.78.7.29-.02.54-.2.65-.47.14.1.31.13.47.1.42-.05.72-.42.67-.84,0-.03-.01-.06-.02-.09-.05-.38-.39-.64-.77-.6-.05.01-.11.02-.16.04.14-.28.37-.34.65-.44l-.04-.18c-.06-.26-.02-.54.11-.78.2.18.33.43.37.69l.03.18c.27-.05.55.02.76.19-.38-.01-.69.3-.7.68h0c0,.05,0,.11.02.16.04.42.42.72.83.67.03,0,.07-.01.1-.02.17-.02.33-.11.43-.24.12.13.29.2.47.2.42.02.77-.29.8-.71v-.1c.02-.38-.28-.7-.66-.72-.05,0-.11,0-.16.01.18-.21.45-.32.72-.32l-.01-.18c-.01-.27.07-.54.24-.75.17.21.26.48.24.75l-.01.18c.27,0,.54.11.72.32-.37-.07-.73.17-.81.55h0c-.01.05-.01.11-.01.16-.03.42.29.78.71.81h.1c.18,0,.34-.07.47-.19.1.16.27.27.46.29.41.1.82-.15.92-.56.01-.03.01-.06.02-.09.08-.37-.15-.74-.53-.83h0c-.05-.01-.1-.02-.16-.02.22-.17.49-.24.76-.18l.02-.19c.03-.27.16-.51.37-.69.13.24.17.51.11.78l-.04.18c.28.1.51.16.65.44-.36-.14-.76.04-.89.4-.02.05-.03.1-.04.15-.1.41.15.82.55.92.03.01.07.01.1.02.16.03.33,0,.47-.1.15.38.57.57.95.42.27-.11.46-.36.47-.65v-.03c-.01-.08-.03-.15-.05-.22-.05-.15-.14-.29-.26-.4-.24-.21.17-.71.58-.29.06.09.12.18.17.28l.32.03c.38-.51.8-.38,1.26-.15l-.07.04c-.25.15-.48.34-.68.55-.24.26-.4.58-.46.93v.55c-2.08-.6-4.24-.91-6.4-.92-2.16.01-4.3.31-6.37.89v-.57c-.06-.36-.22-.68-.47-.94M34.82,60.17l.27-.27.04-.37c1.43-.43,2.91-.64,4.4-.63,1.09,0,2.17.11,3.23.33.39.08.78.18,1.17.31.02.2.04.37.04.37.52.49.91,1.11,1.12,1.8-.54.03-1,.69-.51,1.12.1.1.16.23.18.37l-.01.03c-.03.19-.22.32-.41.29-.16-.03-.28-.16-.29-.32v-.22l-.4-.06c0,.01-.01.03-.01.04-.04.14-.18.23-.32.2-.21-.01-.37-.19-.36-.4,0-.03.01-.06.02-.09.07-.23.32-.36.55-.28.05.01.09.04.13.06.1.09.2.19.28.31.06-.63.07-1.05-.54-1.38l-.08-.04c.05-.39-.07-.79-.34-1.08l-.08-.06-.11.03c-.35.18-.6.51-.68.9l-.11.01c-.68.1-.82.53-.98,1.14.11-.1.23-.18.37-.23.23-.07.62.13.56.45-.01.21-.19.37-.4.36h0c-.03,0-.06-.01-.09-.02-.15-.02-.25-.15-.24-.3v-.05l-.25-.06h-.21c0,.02,0,.03-.01.05-.01.15-.14.26-.28.26-.21.03-.4-.12-.43-.33v-.1c0-.32.42-.45.63-.34.12.07.23.16.32.26-.06-.63-.11-1.04-.77-1.26l-.08-.02c-.01-.4-.2-.76-.52-1.01l-.1-.05-.09.05c-.31.24-.5.61-.51,1.01l-.08.02c-.66.22-.71.63-.77,1.26.1-.1.21-.18.32-.25.21-.11.63.01.63.33.03.21-.12.4-.33.43h-.09c-.15,0-.27-.11-.28-.26,0-.01-.01-.03-.01-.05h-.22l-.22.01v.05c.01.15-.09.28-.24.3-.2.06-.41-.05-.47-.25h0c-.01-.03-.01-.06-.02-.09-.06-.32.33-.52.56-.44.13.06.26.14.37.23-.16-.61-.3-1.04-.98-1.14l-.09-.02c-.08-.39-.33-.72-.68-.9l-.11-.03-.08.06c-.27.29-.39.69-.34,1.08l-.08.04c-.61.33-.6.74-.54,1.38.08-.11.17-.22.28-.31.19-.14.47-.1.61.09h0c.03.04.05.08.07.13.06.2-.05.42-.26.48h0c-.03.01-.06.01-.09.02-.14.03-.29-.06-.33-.2-.01-.01-.01-.03-.01-.04l-.4.06v.21c-.01.19-.18.34-.37.33-.16-.01-.3-.13-.33-.29l-.01-.03c.02-.14.08-.27.18-.37.5-.44.02-1.1-.53-1.12.18-.55.47-1.06.84-1.5M34,57.43c.09-.11.23-.17.38-.16.23,0,.45.1.61.27.02.02.27.38.27.38.05-.2.29-1.38.72-1.07l.04.03c-.3.15-.47.47-.45.8-.03.94,1.33.86,1.64-.25l.13-.01c.17.41.56.68,1,.69.8,0,.94-.51.94-.77,0-.63-.6-.82-1.1-.78.18-.19.42-.3.68-.3.07-.01.33.01.33.01-.07-.38.06-.78.35-1.04.29.26.42.66.35,1.04.36-.08.74.03,1.01.28-.51-.04-1.1.15-1.1.78,0,.25.13.77.94.77.44-.01.84-.28,1.01-.69l.02-.03.11.04c.08.39.35.71.73.85,1.18.34,1.1-1.13.46-1.38l.05-.03c.28-.21.48.26.55.47.04.11.16.6.16.6.24-.34.4-.65.88-.65.14-.01.28.05.37.16-.22.09-.43.21-.62.35-.63.49-.59.67-.54,1.34-2.85-.81-5.87-.81-8.73,0,.02-.2.02-.4.01-.6-.06-.48-.8-.95-1.2-1.1M36.3,57.2l.43-.01c.03.02.07.04.11.06-.19.73-.92.91-.9.43.01-.28.11-.48.36-.48M37.11,56.38c.15,0,.27.12.27.27s-.12.27-.27.27-.27-.12-.27-.27h0c0-.14.12-.27.27-.27h0M38.89,57.33c0,.1-.02.39-.56.39-.41,0-.6-.31-.73-.63l.03-.04.24-.06c.32-.09,1.02-.16,1.02.34M41.44,57.08c-.13.32-.32.63-.73.63-.53,0-.55-.28-.55-.39.01-.15.11-.29.24-.36.34-.07.69-.04,1.01.07l.03.05ZM39.55,54.7c.92-.01,1.76.51,2.16,1.34-.22.08-.38.27-.42.5-.18-.41-.6-.68-1.05-.67-.02-.39-.21-.76-.54-.98-.06-.03-.12-.06-.19-.08-.43.18-.72.6-.72,1.06-.45-.01-.87.25-1.05.67-.04-.21-.18-.39-.37-.48.4-.84,1.25-1.37,2.18-1.36M39.52,53.64c.17,0,.3.13.3.3s-.13.3-.3.3-.3-.13-.3-.3h0c0-.16.13-.3.3-.3h0M41.93,56.38c.15,0,.27.12.27.27s-.12.27-.27.27-.27-.12-.27-.27h0c0-.14.12-.27.27-.27h0M42.3,57.2h.43c.26,0,.36.2.37.48.01.48-.71.3-.9-.43.03-.01.07-.03.1-.05h0ZM30.05,72.5h-1.6v-.11c.15-.2.31-.4.49-.58-.11-.11-.22-.23-.32-.36-.06-.1-.09-.21-.09-.33.01-.1-.01-.38.7-.37s.75.24.74.4c-.05.26-.19.49-.39.66l.48.59-.01.1ZM30,83.28h-1.61v-.11c.15-.2.31-.4.49-.58-.11-.11-.22-.24-.32-.36-.06-.1-.09-.21-.09-.32.01-.1-.01-.38.7-.37s.74.24.74.4c-.05.26-.19.49-.38.66l.47.58v.1ZM30,91.39h-1.38l-.06-.33c.14-.17.32-.36.32-.36-.11-.11-.22-.23-.32-.36-.06-.1-.09-.21-.09-.33.01-.1-.01-.38.7-.38s.74.24.74.41c-.05.26-.19.49-.38.66l.47.59v.1ZM46.12,68.92c.26-.48.68-.84,1.19-1.04-.13-.39-.44-.69-.84-.8-.08-.02-.16-.03-.24-.02.2-.66.24-1.36.13-2.04.1.03.21-.02.24-.13.03-.1-.02-.2-.11-.23,0,0-.06-.02-.17-.06v-.05c-.01-.32-.01-.6-.01-.62.08-.25.2-.48.37-.67.36-.33.76-.61,1.2-.84l-.25-.2c-.08-.03-.16-.06-.23-.1-.57-.28-1.08-.48-1.62.02l-.02-.03c-.08-.12-.18-.22-.3-.29l.04-.01c-.21-.78-.62-1.49-1.18-2.07-.05-.4-.07-.79-.07-1.19.21-.33.52-.58.89-.72.13-.06.4-.13.4-.13-.11-.46-.32-.79-.87-.79-.26,0-.5.08-.71.23-.4-1-.8-.74-1.37-.46,0-.28-.17-.53-.44-.62,0-.04,0-.07-.02-.11-.37-.83-1.11-1.42-2-1.6.08-.12.11-.25.11-.39,0-.32-.2-.6-.51-.69v-.4h.6c.12,0,.21-.1.21-.21s-.1-.21-.21-.21h-.61v-.71c0-.12-.09-.21-.21-.21s-.21.09-.21.21h0v.71h-.6c-.12,0-.21.1-.21.21s.1.21.21.21h.6v.4c-.31.1-.51.38-.51.7,0,.14.04.28.12.4-.9.2-1.65.83-1.99,1.69-.28.08-.48.35-.47.64-.57-.3-.97-.55-1.37.44-.21-.15-.45-.24-.71-.23-.34-.01-.66.19-.79.5-.03.09-.06.19-.08.28.53.11.99.41,1.29.85,0,.4-.02.79-.07,1.19-.56.58-.97,1.29-1.16,2.07-.09.07-.18.16-.24.26l-.02.03c-.54-.5-1.06-.3-1.63-.02-.07.04-.15.07-.23.1l-.25.2c.44.22.84.51,1.2.84.17.2.29.43.37.67,0,.02,0,.3-.01.62v.07l-.15.05c-.1.04-.14.15-.1.25.04.09.13.14.22.11-.13.69-.08,1.41.14,2.08-.09-.01-.18,0-.27.02-.4.11-.71.41-.84.81.51.2.93.57,1.19,1.04.12.23.36.86.45,1.07h-5.64v19.21c-.03.95.08,1.89.3,2.82,1.1,3.83,4.89,6.48,8.33,8.03.76.35,1.55.65,2.35.91l.4.08.38-.08c2.52-.78,4.86-2.05,6.89-3.73,2.31-2,3.75-4.01,3.95-7,.04-.57.04-1.02.04-1.02v-19.23h-4.71c.08-.21.32-.84.44-1.07"/>
    <path class="st0" d="M76.24,89.99v.02l-.27.11c.03.04.08.06.13.06s.09,0,.14.01l-.26.19c.09.02.19.02.27-.01l-.21.24c.09.02.18-.04.26-.09l-.15.26c.08-.03.15-.09.21-.15l-.07.2c.06,0,.09-.06.13-.12l-.03.21.01.01c.02-.04.04-.08.07-.12s.01-.11.01-.16c0,.05.02.08.02.13s.01.1.02.15c.04-.05.04-.12.02-.18l.02.03v-.01l.02.18.02-.06h.01c.01.03.01.07.01.1,0,.07-.01.08-.05.05,0,.05.01.08.04.08s.05-.04.06-.17c.01.07.01.15-.03.22-.03.06-.05.06-.11.03l.03.11c-.01.04-.04.05-.06.03v.01l.05.06-.04.1.04-.02c-.02.06-.05.11-.08.17-.01.01-.04.01-.05,0-.04-.03-.07-.06-.1-.09-.01,0-.02.01-.03.02-.01.02-.02.03-.02.05.03,0,.03.03.02.07l.06-.01-.02.07c.01,0,.01-.01.02,0,.02.03.03.02.05-.01.01-.01.04,0,.05.01.03.04.06.07.08.11l.03.04c0-.02.01-.04.01-.06s0-.06-.02-.07c-.04-.01-.05-.06-.03-.13l.05-.12.01.05.04-.13.05.06v-.14c.02.05.04.08.08.08-.01-.02-.02-.04-.02-.06v-.07c.01-.01.03-.02.04-.01.04.07.05.16.03.24-.01.01-.02.02-.04.02-.01,0-.02-.01-.04-.02.01.06.02.07.07.1-.03.09-.06.11-.13.08.04.07.07.09.12.06s.04-.02.05.05l.01.07c.01-.04.01-.06.01-.08.01-.04.02-.06.04-.04.05.04.08.02.12-.05-.05.03-.09,0-.13-.09.04-.01.07-.03.08-.11-.01.01-.02.02-.03.02-.04.03-.06,0-.06-.08,0-.04.01-.07.01-.11,0-.02.01-.04.02-.05.01-.01.03,0,.05,0v.07c0,.02-.01.03-.02.05.04,0,.04-.01.08-.08v.13l.05-.05.04.12.01-.04c.02.04.04.08.05.12.02.06.01.11-.02.12s-.03.04-.02.08l.01.04.06-.07c.02-.02.03-.04.04-.06.03-.05.04-.06.07-.01.01.01.02.01.03.01s.02-.01.03-.02l-.01-.07.06.01c-.01-.06-.01-.07.02-.06-.01-.02-.01-.04-.02-.06-.01-.01-.02-.02-.03-.02-.03.02-.06.05-.09.07-.04.05-.06.05-.09-.02l-.05-.11v-.02l.04.01-.05-.1.06-.06c-.03.01-.06-.01-.07-.04h0l.03-.11-.01-.01c-.03.03-.07.05-.1-.01-.01-.04-.02-.08-.02-.12,0,.01,0,.02.01.04.01.02.03.03.04.02s.02-.04.04-.07c-.02,0-.04.02-.05.01-.01-.03-.01-.06-.01-.08,0-.03.01-.06.01-.09l.02.06.01-.06.01-.06.04.14c.01-.07.01-.12.02-.17v-.07c.01.09.04.17.1.23l-.03-.22c.04.06.07.13.13.12-.03-.07-.05-.13-.07-.19l.18.14q.01,0,.03.01l-.15-.26c.08.05.17.12.26.1-.07-.08-.15-.17-.22-.25.09.04.19.04.28.02l-.26-.19c.1.01.2-.01.28-.07l-.28-.11v-.02c.1,0,.2-.04.28-.11l-.34-.07c.13-.06.27-.07.36-.26-.17.05-.34.08-.52.08.04-.02.07-.03.11-.04s.07-.04.1-.06.07-.04.1-.07c-.13-.02-.27-.01-.4.04l.04-.12v-.01l-.11.17-.03-.05-.01.01c.01.05.01.1.02.14.02.07.04.13.06.2.03.13.03.26-.02.38v-.07c-.02.08-.03.14-.04.2-.01.03,0,.08-.03.07,0,0-.01.04-.02.07-.01.02-.02.04-.03.06-.02-.02-.03-.05-.04-.08,0-.03,0-.05.01-.07.01-.04.02-.07.03-.1l-.01-.01c-.01.01-.02.03-.03.03s-.02,0-.03-.02c0-.02,0-.03.01-.05.01-.02.02-.05.03-.07-.05,0-.06-.04-.04-.11.01-.03.03-.06,0-.1,0-.02,0-.04.01-.06l-.01.01c-.01-.06.01-.07.06-.05.01-.05,0-.1-.03-.14s-.06-.05-.09-.03c-.01.01-.03-.01-.04-.01-.01.02-.02.07-.05.04-.01-.02-.02-.04-.02-.07-.03.04-.04.07,0,.14l-.03.04c.07.01.08.02.08.12l-.03.02c.04.04.05.09.04.14,0,.03-.01.06-.04.03,0,.03.01.05.02.08.02.02.02.04.01.06-.01.01-.03.01-.04.01s-.01-.01-.01-.02l-.01.01c.01.03.02.06.03.09.03.05.02.1-.01.15-.01.01-.02.01-.02,0h0c-.03-.07-.05-.14-.07-.21-.01-.05-.02-.1-.04-.17v.07c-.05-.12-.05-.25-.02-.38.03-.1.05-.2.08-.31v-.05l-.04.06-.11-.17-.01.01.03.1-.39-.04v.03l.29.16c-.04.02-.1-.01-.15-.01-.06,0-.12-.01-.18-.03-.06-.01-.12-.03-.18-.05l-.01.02c.02.04.05.07.08.11.08.07.17.11.27.12h.02v.02l-.34.07c.03.04.08.07.13.08.09.01.14.02.19.02M76.85,89.73c.03-.03.04.03.04.03,0,0-.07,0-.04-.03"/>
    <path class="st0" d="M80.84,89.98c.05-.01.1-.04.13-.08l-.34-.07v-.02h.02c.1-.01.19-.06.27-.12.03-.03.06-.07.08-.11v-.02c-.06.02-.12.03-.18.05-.06.01-.12.02-.18.03-.06,0-.11.03-.15.01l.3-.16v-.03l-.39.04.03-.1-.01-.01-.11.17-.04-.06v.05c.03.1.05.21.08.31.03.13.02.26-.02.38v-.07c-.01.07-.02.12-.04.17-.02.07-.05.14-.07.21,0,.01-.01.01-.02.01h0c-.03-.04-.04-.1-.01-.15.01-.03.02-.06.03-.09l-.01-.01c0,.01-.01.02-.01.02,0,0-.03.01-.04-.01-.01-.02-.01-.05.01-.06.01-.03.02-.05.02-.08-.03.02-.04,0-.04-.03-.01-.05,0-.1.04-.14l-.03-.02c.01-.1.01-.11.08-.12l-.03-.04c.04-.07.04-.1,0-.14,0,.02-.01.05-.02.07-.03.03-.04-.02-.05-.04-.02.01-.03.02-.04.01-.03-.02-.06-.01-.09.03s-.05.09-.03.14c.05-.02.07-.01.06.05l-.01-.01c0,.02.01.04.01.06-.03.04-.01.07,0,.1.02.07,0,.11-.04.11.01.02.02.05.03.07s.01.03.01.05c0,.01-.02.02-.03.01-.01,0-.02-.02-.03-.03l-.01.01c.01.04.02.07.03.11.01.02.01.05.01.07-.01.03-.02.05-.04.08-.01-.02-.02-.04-.03-.06s-.01-.07-.02-.06c-.03.01-.03-.04-.03-.07-.02-.06-.03-.12-.04-.2v.07c-.05-.12-.05-.26-.02-.38.02-.07.04-.13.06-.2.01-.04.01-.09.02-.14l-.01-.01-.03.05-.11-.17v.01l.04.12c-.13-.04-.27-.06-.4-.04.03.03.06.05.1.07.03.02.07.04.1.06s.07.03.11.05c-.18,0-.35-.03-.52-.08.1.2.24.21.36.26l-.34.07c.07.07.17.11.28.11v.02l-.28.11c.08.06.18.08.28.07l-.26.19c.09.02.19.01.28-.02l-.22.25c.09.02.18-.04.26-.1-.05.08-.1.17-.15.26.01,0,.02,0,.03-.01l.18-.14-.07.19c.06,0,.09-.07.13-.12l-.03.22c.06-.06.09-.14.1-.23v.07c.01.05.01.1.02.17l.04-.14.01.06.01.06.02-.06c.01.03.01.06.01.09s0,.06-.01.08c0,.01-.02,0-.05-.01.02.03.03.07.04.07s.03,0,.04-.02c0-.01.01-.02.01-.04,0,.04-.01.08-.02.12-.03.05-.06.04-.1.01l-.01.01.03.11c-.01.04-.04.04-.07.04l.06.06-.05.1.04-.01v.02l-.05.11c-.03.07-.04.07-.09.02-.03-.03-.06-.05-.09-.07-.01,0-.02.01-.03.02-.01.02-.02.04-.03.06q.03,0,.03.06l.06-.01-.01.07c.01.01.02.01.03.02.01,0,.02,0,.03-.01.03-.04.05-.04.07.01.01.02.03.04.04.06.02.03.04.05.06.07l.01-.04c.01-.04.01-.07-.02-.08s-.05-.06-.02-.12c.02-.04.03-.08.05-.12l.01.04.04-.12.05.05v-.14c.03.07.04.08.08.08-.01-.02-.01-.03-.02-.05v-.07c.02,0,.04-.01.05,0,.01.02.02.04.02.06.01.04.01.07.01.11,0,.08-.02.11-.06.08-.01-.01-.02-.01-.03-.02.01.08.04.1.08.11-.03.08-.07.11-.13.09.04.07.07.09.12.05.03-.02.04-.01.04.04,0,.02.01.05.01.08l.01-.07q.01-.07.05-.05c.04.02.09.01.12-.06-.07.02-.1,0-.13-.08.06-.03.07-.04.07-.1-.01.01-.03.02-.04.02s-.03-.01-.04-.02c-.02-.08-.01-.17.03-.24.01-.01.03,0,.04.01v.07c-.01.02-.01.04-.02.06.04,0,.06-.02.08-.08v.14l.05-.06.04.13.01-.05.05.12c.03.06.02.11-.03.13-.02.01-.03.03-.02.07s.01.04.01.06l.03-.04c.03-.04.05-.08.08-.11.01-.02.05-.03.05-.01.02.03.03.04.05.01h.02l-.02-.07.06.01c-.01-.04-.01-.07.02-.07-.01-.02-.01-.04-.02-.05-.01-.01-.02-.02-.03-.02-.03.03-.07.06-.1.09-.01.01-.04.02-.05,0-.03-.05-.06-.11-.08-.17l.04.02-.04-.1.05-.06v-.01c-.03.02-.05.01-.06-.03l.03-.11c-.06.03-.08.03-.11-.03-.03-.07-.04-.14-.03-.22.01.13.02.18.06.17s.04-.04.04-.08c-.04.04-.05.02-.05-.05,0-.03.01-.07.01-.1h.01l.02.06.02-.18v.01l.02-.03c-.02.06-.02.13.02.18.01-.05.02-.1.02-.15s.02-.08.02-.13c0,.06-.02.12.01.16s.04.08.07.12l.01-.01-.03-.21c.04.06.07.13.13.12l-.07-.2c.06.07.13.12.21.15l-.15-.26c.08.05.17.11.26.09l-.21-.24c.09.03.18.03.27.01l-.26-.19c.05-.01.09-.01.14-.01s.1-.02.13-.06l-.27-.11v-.01c.09-.04.13-.04.17-.06M80.05,89.78s.01-.06.04-.03-.04.03-.04.03"/>
    <path class="st0" d="M74.21,77.89l.12.15c.05-.01.11,0,.15.03.03.02.07.01.11.02.03.01.06.03.09.05-.03.01-.05.02-.06.03-.11.04-.22.08-.32.12-.04.01-.06.01-.08-.02-.16-.24-.33-.47-.52-.68-.03-.04-.03-.07,0-.11.07-.08.14-.17.21-.26l.03-.03.03.03c0,.01.01.02,0,.03-.01.1-.02.2-.03.31.07.01.09.08.1.16l.06-.06c.04-.06.05-.06.11-.03.04.01.07.01.11,0h.06c0,.02-.01.04-.01.06-.01.04-.03.07-.03.11,0,.07-.02.08-.08.08-.03.01-.04.01-.05.01"/>
    <path class="st0" d="M72.98,77.93c.09-.01.17.05.18.14v.02l-.28-.04h0c-.03,0-.07,0-.1.01-.1.06-.21.09-.32.1-.02,0-.04.01-.06.01.02.02.04.03.06.05.07.04.17.04.24,0,.12-.06.26-.03.36.06-.05.04-.13.04-.18,0-.01-.01-.04-.02-.05-.01-.03.03-.06.06-.09.1,0,.02,0,.04.02.06.05.03.09.06.05.14.03-.01.07-.03.1-.05.02-.01.04-.03.06-.03.06.01.11.04.18.06-.03.02-.04.03-.06.04-.07.04-.14.08-.2.13-.11.09-.24.16-.37.21-.04.03-.1.01-.12-.03-.03-.03-.06-.07-.08-.11-.13-.16-.18-.37-.16-.57.01-.06.03-.12.05-.18.03-.13-.02-.26-.11-.35-.02-.01-.04-.02-.07-.02-.02.01-.05.02-.07.04.05.03.07.05.05.11-.07-.02-.14-.05-.2-.09-.05-.04-.12-.02-.16.03-.01.02-.02.04-.02.06.01,0,.03-.01.04-.01.02,0,.04,0,.06.01.01.01,0,.03,0,.05,0,.04-.04.07-.08.07-.02,0-.03.01-.05.03-.03.02-.06.04-.1.06-.05.02-.06.08-.04.13v.01l.03-.02c.05-.03.06-.03.09.03.01.03.03.05.05.07.06.04.09.1.08.17v.1c0,.05-.03.09-.07.1-.01.01-.03.02-.04.03.03.02.06.04.1.05.06.01.07.04.08.09.04.24.14.46.3.64.04.03.04.08.02.13-.02.06-.03.11-.02.17,0,.05-.01.08-.05.1-.14.06-.29.09-.44.08-.03,0-.06-.02-.06-.06v-.02c0-.03.01-.06.01-.09.01-.08-.05-.18-.12-.18-.05,0-.1-.02-.14-.04-.04-.03-.09-.01-.12.03l-.01.02s.01.01.01,0c.03,0,.06.02.06.04v.01c0,.03-.02.05-.04.07-.03.03-.08.04-.12.03-.03,0-.06.01-.09.03-.01.01-.01.04-.02.06.04.01.08,0,.09.02.03.05.1.09.06.17-.01.03-.03.06-.06.09-.05.06-.06.11,0,.15l.02-.03c.03-.05.05-.05.1-.02.03.02.06.03.1.03.14,0,.27.08.34.21.01.02.02.03.03.05h.02c0-.05.01-.1.01-.15,0-.07.06-.1.12-.07.06.03.12.06.19.07.12.01.22.08.27.19.03.05.07.09.11.12.02.01.04.02.06.03,0-.03-.01-.05-.01-.08-.01-.04.01-.05.04-.04.02,0,.04.02.06.02.05.02.1.03.16.03.2-.02.38.13.39.33v.02h-.07c-.13-.02-.27-.02-.4.01-.07.01-.13.06-.16.13-.04.1-.04.22.01.31.04.08.08.17.1.27.03.12-.04.17-.16.15-.13-.02-.24-.11-.28-.23-.03-.1-.15-.18-.23-.16-.07.02-.15.03-.23.03-.06.01-.1.05-.1.11.02,0,.05-.01.07-.01s.06,0,.06.04.01.08.01.12c0,.02,0,.04-.01.05-.06.04-.08.11-.11.17-.04.06-.03.14.02.19l.05-.08c.04.02.06.04.09.05.06.03.07.05.05.11-.01.02-.02.04-.03.06-.02.05,0,.1.04.13.02-.1.1-.1.18-.11.05-.01.09-.02.13-.04.04-.02.09-.04.14-.05.16-.01.32-.01.48-.01.11,0,.12-.01.12-.12,0-.09,0-.18.01-.27,0-.08.06-.15.14-.18.07-.02.15-.03.22-.03s.08.02.1.09c.01.08.04.16.07.23.06.14.17.24.31.29.09.02.18.04.28.05s.19.02.3.03c-.07.15-.23.24-.4.23-.06-.01-.12-.02-.17-.02s-.1.03-.14.06c-.04.06-.08.12-.1.19-.01.01.01.03.01.05h.84l.01-.04c.02-.12.11-.22.23-.25.06-.02.11-.05.17-.08.07-.03.1-.12.07-.19h0c0-.01-.01-.02-.01-.03-.02-.04-.05-.07-.09-.09-.12-.07-.25-.13-.37-.19-.1-.05-.11-.09-.08-.19.01-.03.01-.06.03-.08.01-.02.03-.03.05-.03.07,0,.13.02.2.03.11.02.23,0,.33-.06.18-.1.27-.31.22-.51-.02-.17-.08-.32-.17-.47-.1-.18-.2-.35-.29-.53-.05-.1-.08-.2-.11-.3-.02-.06.01-.11.06-.14.04-.02.09,0,.12.06.01.02.03.03.04.05.02-.09-.02-.18-.11-.22-.04-.02-.06-.03-.05-.08,0-.04-.01-.08-.02-.12h-.02c-.05.06-.04.16-.14.2-.01-.06-.03-.11-.04-.17-.06-.2-.03-.41.09-.58.08-.14.24-.23.4-.22.11,0,.19.09.19.2h0v.04c-.01.04-.03.08-.05.11-.07.1-.09.22-.06.33.02.07.04.13.06.19.01.03.02.05.04.09.08-.1.08-.22.13-.33l.05.08.02-.02c.04-.14.05-.29.04-.43-.02-.21-.19-.38-.4-.38-.19-.01-.37.07-.47.23-.15.19-.21.44-.15.67.03.15.08.3.14.44.08.21.18.41.28.62.05.11.11.22.17.33.06.13.1.28.11.42.01.11-.04.21-.13.27-.13.08-.3.07-.43-.02-.02-.02-.04-.04-.05-.07-.04-.11-.06-.23-.11-.33-.1-.24-.23-.47-.38-.69-.07-.12-.14-.24-.19-.37-.04-.09-.04-.18-.02-.27.03.02.06.03.09.04h.04v-.04c-.01-.06-.01-.12-.01-.17,0-.07.03-.14.08-.19l.08.11c.04-.1.07-.19.1-.28s.05-.19.07-.29l.07.05c.03-.08.05-.16.07-.23.06-.15.04-.31-.06-.44-.14-.19-.28-.37-.42-.55-.07-.09-.12-.11-.23-.07-.07.03-.14.04-.21.03-.11-.01-.22-.03-.34-.04-.03,0-.07,0-.08.02s-.01.06-.01.09.01.05,0,.06c-.04.04-.04.11,0,.16h0l.01.01c.02-.02.08-.01.13-.01M73.39,77.88v-.01c.1-.02.08-.1.09-.17l.11.21-.2-.03"/>
    <path class="st0" d="M79.55,71.19l.12.15c.05-.01.11,0,.15.03.03.02.07.01.11.02.03.01.06.03.09.05-.03.01-.05.02-.06.03-.11.04-.22.08-.32.12-.04.01-.06.01-.08-.02-.16-.24-.33-.47-.52-.68-.03-.04-.03-.07,0-.11.07-.08.14-.17.21-.26l.03-.03.03.03c0,.01.01.02.01.03-.01.1-.02.2-.03.31.07.01.08.08.1.16l.06-.06c.04-.06.05-.06.11-.03.04.01.07.01.11,0h.06c0,.02-.01.04-.01.06-.01.04-.03.07-.03.11,0,.07-.01.08-.08.08l-.06.01"/>
    <path class="st0" d="M78.32,71.23c.09-.01.17.05.18.14h0v.02l-.28-.04h0c-.03,0-.07,0-.1.01-.1.06-.21.09-.32.1-.02,0-.04,0-.06.01.02.02.04.03.06.05.07.04.17.04.24,0,.12-.06.26-.03.36.06-.05.05-.13.05-.18,0-.01-.01-.04-.02-.05-.01-.03.03-.06.06-.09.1-.01.02,0,.04.02.06.05.03.09.06.05.14.03-.01.07-.03.1-.05.02-.01.04-.03.06-.03.06.01.11.04.18.06l-.06.04c-.07.04-.14.08-.2.13-.11.09-.24.16-.37.21-.04.03-.1.01-.12-.03-.03-.03-.06-.07-.08-.11-.13-.16-.18-.37-.16-.57.01-.06.03-.12.05-.18.03-.13-.02-.26-.11-.35-.02-.01-.04-.02-.07-.02-.02.01-.05.02-.07.04.05.03.07.05.05.11-.07-.02-.14-.05-.2-.09-.05-.04-.12-.02-.15.03h0c-.01.02-.02.04-.02.06.01-.01.03-.01.04-.01.02,0,.04,0,.06.01.01.01,0,.03,0,.05,0,.04-.03.07-.07.07-.02,0-.03.01-.05.03-.03.02-.06.04-.1.06-.05.02-.06.08-.04.13h0v.01l.03-.02c.05-.03.06-.03.09.03.01.03.03.05.05.07.06.04.09.1.08.17v.11c0,.05-.03.09-.07.1-.01.01-.03.02-.04.03.03.02.06.04.09.05.06.01.07.04.08.09.04.24.14.46.3.64.03.03.04.08.02.13-.02.05-.03.11-.02.17,0,.05-.01.08-.05.1-.14.06-.29.09-.44.08-.03,0-.06-.02-.06-.06v-.02c0-.03.01-.06.01-.09.01-.08-.05-.18-.11-.18-.05,0-.1-.02-.14-.04-.04-.03-.09-.01-.12.03h0l-.01.02.01.01c.03-.01.06.01.06.04h0v.01c0,.03-.02.05-.04.07-.03.03-.08.04-.12.03-.03,0-.06.01-.09.03-.01.01-.01.04-.02.06.04.01.08,0,.09.02.03.05.1.09.06.17-.01.03-.03.06-.06.09-.05.06-.06.11,0,.15l.02-.03c.03-.05.05-.05.1-.02.03.02.06.03.1.03.14,0,.27.08.34.21.01.02.02.03.04.05h.02c0-.05.01-.1.01-.15,0-.07.06-.1.12-.07.06.03.12.06.19.07.12.01.22.08.27.19.03.05.07.09.11.12.02.01.04.02.06.03,0-.04-.01-.06-.01-.08-.01-.04.01-.05.04-.04s.04.02.06.02c.05.02.1.03.16.03.2-.02.38.13.39.33v.02h-.07c-.13-.02-.27-.02-.4.01-.07.01-.13.06-.16.13-.04.1-.04.22.01.31.04.08.08.17.1.27.03.12-.04.17-.16.15-.13-.02-.24-.11-.28-.23-.03-.1-.14-.18-.22-.15-.07.02-.15.03-.23.03-.06,0-.1.05-.1.11.02,0,.05-.01.07-.01s.06,0,.06.04.01.08.01.12c0,.02,0,.04-.02.05-.06.04-.07.11-.11.17s-.03.14.02.19l.04-.08c.04.02.06.04.09.05.06.03.07.05.04.11-.01.02-.02.04-.02.06-.02.05,0,.1.04.13.03-.1.1-.1.18-.11.05-.01.09-.02.13-.04.04-.02.09-.04.14-.05.16-.01.32-.01.48-.01.11,0,.12-.01.12-.12,0-.09,0-.18.01-.27,0-.08.06-.15.14-.18.07-.02.15-.03.22-.03s.08.02.1.09c.01.08.04.16.07.23.06.14.17.24.31.29.09.02.18.04.28.05s.19.02.29.03c-.07.15-.23.24-.4.23-.06-.01-.11-.02-.17-.02-.05,0-.1.03-.14.06-.04.06-.08.12-.1.19-.01.01.01.03.01.05h.85l.01-.04c.02-.12.11-.22.23-.25.06-.02.11-.05.17-.08.07-.03.1-.12.07-.19h0c0-.01-.01-.02-.01-.03-.02-.04-.05-.07-.09-.09-.12-.07-.25-.13-.37-.19-.1-.05-.11-.09-.09-.19.01-.03.01-.06.03-.08.01-.02.03-.03.05-.03.07,0,.13.02.2.03.11.02.23,0,.33-.06.18-.1.27-.31.22-.51-.02-.17-.08-.32-.17-.47-.1-.18-.2-.35-.29-.53-.05-.1-.08-.2-.11-.3-.02-.06.01-.11.06-.14.04-.02.09,0,.12.06.01.02.03.03.04.05.02-.09-.02-.18-.11-.22-.04-.02-.06-.03-.05-.08,0-.04-.01-.08-.03-.12h-.02c-.05.06-.04.16-.14.2-.01-.06-.03-.11-.04-.17-.06-.2-.03-.41.09-.58.08-.14.24-.23.4-.22.11,0,.19.09.19.2h0v.04c-.01.04-.03.08-.05.11-.07.1-.09.22-.06.33.02.07.04.13.06.19.01.03.02.05.04.09.08-.1.08-.22.13-.33l.05.08.02-.02c.04-.14.05-.29.04-.43-.02-.21-.19-.38-.4-.38-.19-.01-.36.07-.47.23-.15.19-.21.43-.15.67.03.15.08.3.14.44.08.21.18.41.28.62.05.11.11.22.17.33.06.13.1.28.11.42.01.11-.04.21-.13.27-.13.08-.3.07-.43-.02-.02-.02-.04-.04-.05-.07-.04-.11-.07-.23-.11-.33-.1-.24-.23-.47-.38-.69-.07-.12-.14-.24-.19-.37-.03-.09-.04-.18-.02-.27.04.02.06.03.09.04h.04v-.04c-.01-.06-.01-.12-.01-.17,0-.07.03-.14.08-.19l.08.11c.04-.1.07-.19.1-.28s.05-.19.07-.29l.07.05c.03-.08.05-.16.07-.23.06-.15.04-.32-.06-.45-.14-.19-.28-.37-.42-.55-.07-.09-.12-.11-.23-.07-.07.03-.14.04-.21.03-.11-.01-.22-.03-.34-.04-.03-.01-.06,0-.08.02-.02.02-.01.06-.01.09s.01.05,0,.06c-.04.04-.04.11,0,.16h0l.01.01c.01-.05.07-.04.13-.03M78.73,71.18v-.01c.1-.02.08-.1.09-.17l.11.2-.2-.02"/>
    <path class="st0" d="M90.33,85.05l.12.15c.05-.01.11,0,.15.03.03.02.07.01.11.02.03.01.06.03.09.05-.03.01-.05.02-.06.03-.11.04-.22.08-.32.12-.04.01-.06.01-.08-.02-.16-.24-.33-.47-.52-.68-.03-.02-.03-.06-.01-.09l.01-.01c.07-.08.14-.18.21-.26,0-.02.01-.03.03-.03s.03.01.03.03h0c0,.01.01.02.01.03-.01.1-.02.2-.03.31.07.01.08.08.1.16l.06-.06c.04-.06.05-.05.11-.03.04.01.07.01.11,0h.06c0,.02-.01.04-.01.05-.01.04-.03.07-.03.11,0,.07-.01.08-.08.09-.01,0-.02,0-.03.01"/>
    <path class="st0" d="M89.1,85.08c.09-.01.17.05.18.14v.02l-.28-.04h0c-.03,0-.07,0-.1.01-.1.06-.21.09-.32.1-.02,0-.04.01-.06.01.02.02.04.03.06.05.07.04.17.04.24,0,.12-.06.26-.03.36.06-.05.05-.13.05-.18,0-.01-.01-.04-.02-.05-.01-.03.03-.06.06-.09.1-.01.02,0,.04.02.06.05.03.09.06.05.14.03-.01.07-.03.1-.05.02-.01.04-.03.06-.03.06.02.12.03.18.06l-.06.04c-.07.04-.14.08-.2.13-.11.09-.24.16-.37.21-.04.02-.09.01-.12-.03-.03-.03-.06-.07-.08-.11-.13-.16-.18-.37-.16-.57.01-.06.03-.12.05-.18.03-.13-.02-.26-.11-.35-.02-.01-.04-.02-.07-.02-.02.01-.05.02-.07.04.05.03.07.05.05.11-.07-.03-.13-.05-.2-.09-.05-.04-.12-.03-.15.02-.01.02-.02.04-.02.06.01-.01.03-.01.04-.01.02,0,.04,0,.06.01.01.01,0,.03,0,.05-.01.04-.04.07-.08.07-.02,0-.03.01-.05.03-.03.02-.06.04-.1.06-.05.02-.06.08-.04.13h0v.01l.03-.02c.05-.03.06-.03.09.03.01.03.03.05.05.07.06.04.09.1.08.17v.1c0,.05-.03.09-.07.1-.01.01-.03.02-.04.03.03.02.06.04.09.05.06.01.07.04.08.09.04.24.14.46.3.64.03.03.04.08.02.13-.02.05-.03.11-.02.17,0,.05-.01.08-.05.1-.14.06-.29.09-.44.08-.05,0-.07-.03-.06-.07s.01-.06.01-.09c.01-.08-.05-.18-.11-.18-.05,0-.1-.02-.14-.04-.04-.03-.1-.01-.12.03l-.01.02.01.01c.03,0,.06.01.06.04h0v.01c0,.03-.02.05-.04.07-.03.03-.08.04-.12.03-.03,0-.06.01-.09.03-.01.01-.01.04-.02.06.04.01.08,0,.09.02.03.05.1.09.06.17-.01.03-.03.06-.06.09-.05.06-.06.11,0,.15l.02-.03c.03-.05.05-.05.1-.02.03.02.06.03.1.03.14,0,.27.08.34.21.01.02.02.03.04.05h.02c0-.05.01-.1.01-.15,0-.07.06-.1.12-.07.06.03.12.06.19.07.12.01.22.08.27.19.03.05.07.09.11.12.02.01.04.02.06.03,0-.04-.01-.06-.01-.08-.01-.04.01-.05.04-.04s.04.02.06.02c.05.02.1.03.16.03.2-.02.38.13.39.33h0v.02h-.07c-.13-.02-.27-.02-.4.01-.07.01-.13.06-.16.13-.04.1-.04.22.01.31.04.08.08.17.1.27.03.12-.04.17-.16.15-.13-.02-.24-.11-.28-.23-.03-.1-.15-.18-.23-.15-.07.02-.15.03-.22.03-.06,0-.1.05-.1.11.02-.01.05-.01.07-.01.03,0,.06,0,.06.04s.01.08.01.12c0,.02,0,.04-.02.05-.06.04-.07.11-.11.17s-.03.14.02.19l.04-.08c.04.02.06.04.09.05.06.03.07.05.04.11-.01.02-.02.04-.03.06-.02.05,0,.1.04.13.03-.1.1-.1.18-.11.05-.01.09-.02.13-.04.04-.02.09-.04.14-.05.16-.01.32-.01.48-.01.11,0,.12-.01.12-.12,0-.09,0-.18.01-.27,0-.08.06-.15.14-.18.07-.02.15-.03.22-.03s.08.02.1.09c.01.08.04.16.07.23.06.14.17.24.31.29.09.02.18.04.28.05s.19.02.29.02c-.07.15-.23.24-.4.23-.06-.01-.11-.02-.17-.02-.05,0-.1.03-.14.06-.04.06-.08.12-.1.19-.01.01.01.04.01.05h.84c0-.01,0-.03.01-.04.02-.12.11-.22.23-.25.06-.02.12-.05.17-.08.07-.03.1-.12.07-.19h0c0-.01-.01-.02-.01-.03-.02-.04-.05-.07-.09-.09-.12-.07-.25-.13-.37-.19-.1-.05-.11-.09-.09-.19.01-.03.01-.06.03-.08.01-.02.03-.03.05-.03.07,0,.13.02.2.03.11.02.23,0,.33-.06.18-.1.27-.31.22-.51-.02-.17-.08-.32-.17-.47-.1-.18-.2-.35-.29-.53-.05-.1-.08-.2-.11-.3-.02-.05.01-.11.06-.14.05-.02.09,0,.13.06.01.02.03.03.04.05.02-.09-.02-.18-.11-.22-.04-.01-.06-.03-.05-.08,0-.04-.01-.08-.03-.12h-.02c-.05.06-.04.16-.14.2-.01-.06-.03-.11-.04-.17-.06-.2-.03-.41.09-.58.08-.14.24-.23.4-.22.1,0,.19.09.19.19v.05c-.01.04-.03.08-.05.11-.07.1-.09.22-.06.33.02.07.04.13.06.19.01.03.02.05.04.09.08-.1.08-.22.13-.33l.05.08.02-.02c.04-.14.05-.29.04-.43-.02-.21-.19-.38-.4-.38-.19-.01-.36.07-.47.23-.15.19-.21.43-.15.67.03.15.08.3.14.44.08.21.18.41.28.62.05.11.11.22.17.33.06.13.1.28.11.42.01.11-.04.21-.13.27-.13.08-.3.07-.43-.02-.02-.02-.04-.04-.05-.07-.04-.11-.07-.22-.11-.33-.1-.24-.23-.47-.38-.69-.07-.12-.14-.24-.19-.37-.03-.09-.04-.18-.02-.27.03.02.06.03.09.04.01,0,.03.01.04,0v-.04c-.01-.06-.01-.12-.01-.17,0-.07.02-.15.08-.2l.08.11c.04-.1.07-.19.1-.28s.05-.19.07-.29l.08.05c.03-.08.05-.16.07-.23.06-.15.04-.32-.06-.45-.14-.19-.28-.37-.42-.55-.07-.09-.12-.11-.23-.07-.07.03-.14.04-.21.03-.11-.01-.22-.03-.34-.04-.03,0-.07,0-.08.02s-.01.06-.01.09.01.05,0,.06c-.04.04-.04.11,0,.16l.01.01c.02-.02.08-.01.14,0M89.51,85.03v-.01c.1-.02.08-.1.09-.17.03.06.07.13.11.21l-.2-.03"/>
    <path class="st0" d="M84.98,91.89l.12.15c.05-.01.11,0,.15.03.03.02.07.01.11.02.03.01.06.03.09.05-.03.01-.05.02-.06.03-.11.04-.22.08-.32.12-.04.01-.06.01-.08-.02-.16-.24-.33-.47-.52-.69-.03-.04-.03-.07,0-.11.07-.08.14-.18.21-.26l.03-.03.03.03c0,.01.01.02.01.03-.01.1-.02.2-.03.31.07.01.09.08.1.16l.06-.06c.04-.06.05-.06.11-.03.04.01.07.01.11,0,.02,0,.04,0,.06.01,0,.02-.01.04-.01.05-.01.04-.03.07-.03.11,0,.07-.01.08-.08.09-.05.01-.06.01-.06.01"/>
    <path class="st0" d="M85.08,96.63c-.09.09.08-.12.21-.16.06-.02.11-.05.17-.08.07-.03.1-.12.07-.19h0c0-.01-.01-.02-.01-.03-.02-.04-.05-.07-.09-.09-.12-.07-.25-.13-.37-.19-.1-.05-.11-.09-.08-.19.01-.03.02-.06.03-.08.01-.02.03-.03.05-.03.07,0,.13.02.19.03.11.02.23,0,.33-.06.18-.1.27-.31.22-.51-.02-.17-.08-.32-.17-.47-.1-.18-.2-.35-.29-.53-.05-.1-.08-.2-.11-.3-.02-.05.01-.11.06-.14.04-.02.09,0,.12.06.01.02.03.03.04.05.03-.09-.02-.18-.1-.22-.04-.02-.06-.03-.05-.08,0-.04-.01-.08-.03-.12h-.02c-.05.06-.04.16-.14.2-.01-.06-.03-.11-.04-.17-.06-.2-.03-.41.09-.58.08-.14.24-.23.4-.22.11,0,.19.09.19.2h0v.04c-.01.04-.03.08-.05.11-.07.09-.09.22-.06.33.02.07.04.13.06.19.01.03.02.05.04.09.09-.1.08-.22.13-.33l.05.08.02-.02c.04-.14.05-.29.04-.43-.02-.21-.19-.38-.4-.39-.19-.01-.36.07-.47.23-.15.19-.21.43-.15.67.03.15.08.3.14.44.08.21.18.41.28.62.05.11.11.22.17.33.06.13.1.28.11.42.01.11-.04.21-.13.27-.13.08-.3.07-.43-.02-.02-.02-.04-.04-.05-.07-.04-.11-.07-.22-.11-.33-.1-.24-.23-.47-.38-.69-.08-.12-.14-.24-.2-.37-.03-.09-.04-.18-.02-.27.03.02.06.03.09.05h.04v-.04c-.01-.06-.01-.12-.01-.17,0-.07.03-.14.08-.19l.08.11c.04-.1.07-.19.1-.28s.05-.19.07-.29l.07.05c.03-.08.05-.16.07-.23.06-.15.04-.32-.06-.45-.14-.19-.28-.37-.42-.56-.07-.09-.12-.11-.23-.07-.07.03-.14.04-.21.03-.11-.01-.22-.03-.34-.04-.03,0-.07,0-.08.02s-.01.06-.01.09.01.05,0,.06c-.04.04-.04.11,0,.16l.01.01c.06.02.12.03.18.03.09-.01.17.05.18.14v.02l-.28-.04h0c-.03,0-.07,0-.1.01-.1.06-.21.09-.32.1-.02,0-.04.01-.06.01.02.02.04.03.06.05.07.04.17.04.24,0,.12-.06.26-.03.36.06-.05.04-.13.04-.18,0-.01-.01-.04-.02-.04-.01-.03.03-.06.06-.09.1-.01.02,0,.04.02.06.05.03.09.06.05.14.03-.01.07-.03.1-.05.02-.01.04-.03.06-.03.06.01.11.03.18.06-.03.02-.04.03-.06.04-.07.04-.14.08-.2.13-.11.09-.24.16-.37.21-.04.02-.1.01-.12-.03-.03-.03-.06-.07-.08-.11-.13-.16-.18-.37-.16-.57.01-.06.03-.12.05-.18.03-.13-.02-.26-.11-.35-.02-.01-.04-.02-.07-.02-.02.01-.05.02-.07.04.05.03.07.05.05.11-.07-.03-.13-.06-.2-.09-.05-.04-.12-.02-.15.02h0c-.01.02-.02.04-.02.06.01-.01.03-.01.04-.01.02,0,.04,0,.05.01s0,.03,0,.05c-.01.04-.04.07-.08.07-.02,0-.03.01-.05.03-.03.02-.06.04-.09.06-.05.02-.06.08-.04.13h0v.01l.03-.02c.05-.03.06-.03.09.03.01.03.03.05.05.07.06.04.09.1.08.17v.1c0,.05-.03.09-.07.1-.01.01-.03.02-.04.03.03.02.06.04.1.05.06.01.07.04.08.09.04.24.14.46.3.64.03.03.04.08.02.13-.02.05-.03.11-.02.17,0,.05-.01.08-.05.1-.08.05-.18.08-.28.07l.29.41c.13.01.14.11.21.21.03.05.07.09.11.12.02.01.04.02.06.03,0-.04-.01-.06-.01-.08-.01-.04.01-.05.04-.04s.04.02.06.02c.05.02.1.03.16.03.2-.02.38.13.39.33h0v.03h-.07c-.13-.02-.27-.02-.4.01l.32.29.28.32c.07,0,.08.02.1.09.01.08.05.14.11.19.13.1.2.22.35.26.09.03.1.1.2.11s.19.02.3.02c-.05.14-.13.13-.27.11l.29.29ZM84.15,91.88v-.01c.1-.02.08-.1.09-.17l.11.21-.2-.03"/>
    <path class="st0" d="M81.31,99.04v-.7c-.04,0-.07,0-.11.01-.15.02-.3-.04-.4-.15-.1-.08-.17-.18-.2-.3-.02-.08-.04-.17-.06-.25.32.08.51-.03.78.53v-.31c-.01-.04-.03-.07-.07-.08-.2-.07-.36-.21-.46-.4-.03-.05-.05-.12-.04-.18.12.07.25.13.38.19.12.04.11.16.18.24-.04-.19-.13-.34-.18-.53.01,0,.07-.05.09-.05-.03-.14-.12-.25-.15-.38-.17.06-.32.19-.4.36l-.02-.01.12-.34c-.13.02-.27-.05-.41.02-.15.09-.35.06-.48-.06-.06-.05-.13-.09-.2-.13l-.05-.04c.06-.07.11-.13.16-.2.08-.12.22-.2.36-.21-.18-.08-.18-.25-.24-.39-.03-.08-.08-.16-.12-.25-.01-.03-.02-.06-.03-.08.15-.06.32-.01.42.11,0,.01.01.01.02.01l.2.02c-.02-.04-.05-.08-.07-.13-.05-.09-.06-.2-.02-.3.01-.02.03-.04.04-.05h.3l.01-.25.13.02c.08.02.16.01.22-.05.03-.04.13-.02.2-.01s.14.06.21.01c.01,0,.03,0,.04.01.08.06.17.08.27.07.08,0,.15.01.18.11s.07.21.11.31l.36-.14c.03.21-.03.43-.17.6l.26-.06c-.01.07-.03.14-.04.21-.01.03-.03.06-.03.09-.03.12-.03.13.09.17.09.05.17.14.22.23-.06.02-.12.05-.18.07-.02.01-.04.01-.07.01-.09.04-.17.06-.27.07-.09-.01-.18-.04-.26-.07v.03c-.04.02-.08.03-.12.04-.13.01-.27.02-.39.03.09.02.18.05.27.09.09.05.16.11.23.19-.16-.03-.32-.06-.48-.09-.09-.02-.05,0-.16-.06.01.05.02.07.03.12,0,.01-.03.02-.03.03.08.22.11.46.08.7,0,.06.05.12.07.18.01.02.01.05.01.07-.01.1-.01.19-.02.31.06-.04.13-.09.19-.14.02-.02.02-.05.02-.08-.02-.08,0-.17.05-.24.04-.07.08-.14.1-.22.06-.14.19-.22.34-.23.04-.01.08,0,.12.02.11.07.21.15.3.24.1.09.19.2.3.31-.07.02-.15.05-.23.08-.03.01-.06.03-.08.05s-.04.03-.07.04c-.11.03-.21.06-.32.09-.01,0-.03,0-.04.01-.03.07-.09.05-.14.04-.06-.01-.11-.02-.16-.04-.14-.04-.3.02-.37.15-.01.03,0,.07.01.13-.03.05.01.14-.02.37.02-.01.07-.02.09-.02-.02.12-.03.23-.05.35"/>
    <path class="st0" d="M87.22,76.38v.01l-.27.11c.03.04.08.06.13.06s.09,0,.14.01l-.26.19c.09.02.19.02.27-.01l-.21.25c.09.02.18-.04.26-.09l-.15.26c.08-.03.15-.09.21-.15l-.07.2c.06,0,.09-.06.13-.12l-.03.21.01.01c.02-.04.04-.08.07-.12s.01-.11.01-.16c0,.05.02.08.02.13s.01.1.02.15c.04-.05.04-.12.02-.18l.02.03v-.01l.02.18.02-.06h.01c.01.03.01.07.01.1,0,.07-.01.08-.05.05,0,.05.01.08.04.08s.05-.04.06-.17c.01.07.01.15-.03.22-.03.06-.05.06-.11.03l.03.11c-.01.04-.04.05-.06.03v.01l.05.06-.04.1.04-.02c-.02.06-.05.11-.08.17-.01.02-.04.01-.05,0-.03-.03-.07-.06-.1-.09-.01-.01-.02.01-.03.02-.01.01-.02.03-.02.05.03,0,.03.03.02.07l.06-.01-.02.07c.01,0,.01-.01.02,0,.02.03.03.02.05-.01.01-.01.04,0,.05.01.03.04.06.07.08.11l.03.04c0-.02.01-.04.01-.06s0-.06-.02-.07c-.04-.01-.05-.06-.03-.13.02-.04.04-.08.05-.12l.01.05.04-.13.05.06v-.14c.02.05.04.08.08.08-.01-.02-.02-.04-.02-.06v-.07c.01-.01.03-.02.04-.01.04.07.05.16.03.24-.01.01-.02.02-.04.02-.01,0-.03-.02-.04-.02.01.06.02.07.07.1-.03.09-.06.11-.13.08.04.07.07.09.12.06s.04-.02.05.05l.01.07c.01-.04.01-.06.01-.08.01-.05.02-.06.04-.04.05.04.08.02.12-.05-.06.03-.1,0-.13-.09.04-.01.07-.03.08-.11-.01.01-.02.02-.03.02-.04.03-.06,0-.06-.08,0-.04.01-.07.01-.11,0-.02.01-.04.02-.06.01-.01.03,0,.05,0v.07c0,.02-.01.03-.02.05q.04,0,.08-.08v.14l.05-.05.04.12.01-.04c.02.04.04.08.05.12.02.06.01.11-.02.12s-.03.04-.02.08l.01.04c.02-.02.04-.05.06-.07s.03-.04.04-.06c.03-.05.04-.06.07-.01.01.01.02.01.03.01s.02-.01.03-.02l-.01-.07.06.01c.02-.06.02-.07.05-.07-.01-.02-.02-.04-.03-.06-.01-.01-.02-.02-.03-.02-.03.02-.06.05-.09.07-.04.05-.06.05-.09-.02l-.05-.11v-.02l.04.01-.04-.1.06-.06c-.03,0-.05,0-.07-.04l.03-.11-.01-.01c-.03.03-.07.05-.1-.01-.01-.04-.02-.08-.02-.12,0,.01,0,.02.01.04.01.02.03.03.04.02s.02-.04.04-.07c-.02,0-.04.02-.05.01-.01-.03-.01-.06-.01-.09s.01-.06.01-.09l.02.06.01-.06.01-.06.04.14c.01-.07.01-.12.02-.17v-.03c0-.01,0-.03.01-.04.01.09.04.17.1.23l-.03-.22c.04.06.07.13.13.12-.02-.07-.05-.13-.07-.19l.18.14q.01,0,.03.01l-.15-.26c.08.05.17.12.26.1l-.22-.25c.09.04.19.04.28.02l-.26-.19c.1.01.2-.02.27-.07l-.27-.11v-.02c.1,0,.2-.04.28-.11l-.35-.08c.13-.06.26-.07.36-.26-.17.05-.34.08-.52.08.04-.02.07-.03.11-.04s.07-.04.1-.06c.04-.02.07-.04.1-.07-.13-.02-.27-.01-.4.04l.04-.12-.01-.01-.11.17-.03-.05-.01.01c.01.05.01.09.02.14.02.07.04.13.06.2.03.13.03.26-.02.38v-.08c-.02.08-.03.14-.05.2-.01.03,0,.08-.03.07,0,0-.01.04-.02.06s-.02.04-.03.06c-.02-.02-.03-.05-.04-.08,0-.02,0-.05.01-.07.01-.04.02-.07.03-.1l-.01-.01c-.01.01-.02.03-.03.03s-.02,0-.03-.01c0-.02,0-.04.01-.05.01-.02.02-.05.03-.07-.05,0-.06-.04-.04-.11.01-.03.03-.06,0-.1,0-.02,0-.04.01-.06l-.01.01c-.01-.06.01-.07.06-.05.01-.05,0-.1-.03-.14s-.06-.05-.09-.03c-.01.01-.02-.01-.04-.01-.01.02-.02.07-.05.04-.01-.02-.02-.04-.02-.07-.04.04-.04.07,0,.14l-.03.04c.07.01.08.02.08.12l-.03.02c.04.04.05.09.04.14,0,.03-.01.05-.04.03,0,.03.01.05.02.08.02.02.02.04.01.06-.01.01-.03.01-.04.01s-.01-.01-.01-.02l-.01.01c.01.03.02.06.03.09.03.05.02.1-.01.15-.01.01-.02.01-.02,0h0c-.03-.07-.05-.14-.07-.21-.01-.05-.02-.1-.04-.17v.07c-.05-.12-.05-.25-.02-.38.03-.1.05-.2.08-.31v-.05l-.04.06-.1-.17-.01.01.03.1-.39-.04v.03l.3.16c-.04.02-.1-.01-.15-.01-.06,0-.12-.01-.18-.03-.06-.01-.12-.03-.18-.05v.02c.02.04.05.07.08.11.08.07.17.11.27.12h.02v.01l-.34.07c.03.04.08.07.13.08.05.01.1.02.14.03M87.85,76.11c.03-.03.04.03.04.03,0,0-.07,0-.04-.03"/>
    <path class="st0" d="M91.56,76.35c.05-.01.1-.04.13-.08l-.34-.07v-.02h.02c.1-.01.19-.06.27-.12.03-.03.06-.07.08-.11v-.02c-.06.02-.12.03-.18.05-.06.01-.12.02-.18.03-.06,0-.11.03-.15.01l.3-.16v-.03l-.39.04.03-.1-.01-.01-.1.17-.04-.06v.05c.03.1.05.21.08.31.03.13.02.26-.02.38v-.07c-.01.06-.02.12-.04.17-.02.07-.05.14-.07.21,0,.01-.01.01-.02.01h0c-.03-.04-.03-.1-.01-.15.01-.03.02-.06.03-.09l-.01-.01c0,.01-.01.02-.01.02,0,0-.03.01-.04-.01-.01-.02-.01-.05.01-.06.01-.03.02-.05.02-.08-.03.02-.04,0-.04-.03-.01-.05,0-.1.04-.14l-.03-.02c.01-.1.01-.11.08-.12l-.03-.04c.04-.07.04-.1,0-.14,0,.02-.01.05-.02.07-.03.03-.04-.02-.05-.04-.02.01-.03.02-.04.01-.04-.02-.06-.01-.09.03s-.05.09-.03.14c.05-.02.07-.01.06.05l-.01-.01c.01.02.01.04.01.06-.03.04-.01.07,0,.1.02.07,0,.11-.04.11.01.03.02.05.03.07s.01.03.01.05c0,.01-.02.02-.03.01-.01,0-.02-.02-.03-.03l-.01.01c.01.04.02.07.03.1.01.02.01.05.01.07-.01.03-.02.05-.04.08-.01-.02-.02-.04-.03-.06s-.01-.07-.02-.06c-.03.01-.03-.04-.03-.07-.02-.06-.03-.12-.05-.2v.07c-.05-.12-.05-.26-.02-.38.02-.07.04-.13.06-.2.01-.04.02-.09.02-.14l-.01-.01-.03.05-.11-.17v.01l.04.12c-.13-.04-.27-.06-.4-.04.03.02.06.05.1.07.03.02.07.04.1.06s.07.03.11.04c-.18,0-.35-.03-.52-.08.1.2.23.21.36.26l-.34.07c.08.07.17.11.28.11v.01l-.27.11c.08.06.18.08.27.07l-.26.19c.09.02.19.01.28-.02l-.23.25c.09.02.18-.04.26-.1l-.15.26c.01,0,.02,0,.03-.01l.18-.14-.07.19c.06,0,.09-.07.13-.12l-.03.22c.06-.06.09-.14.1-.23,0,.01.01.03.01.04v.03c.01.05.01.1.02.17l.04-.14.01.06.01.06.02-.06c.01.03.01.06.01.09s0,.06-.01.08c0,.01-.03,0-.05-.01.02.03.03.07.04.07s.03,0,.04-.02c0-.01.01-.02.01-.04,0,.04-.01.08-.02.12-.03.05-.06.04-.1.01l-.01.01.03.11c-.01.04-.04.04-.07.04l.06.06-.04.1.04-.01v.02l-.05.11c-.03.07-.04.07-.09.02-.03-.03-.06-.05-.09-.07-.01,0-.02.01-.03.02-.01.02-.02.04-.02.06q.03,0,.02.06l.06-.01-.01.07c.01.01.02.01.03.02s.02,0,.03-.01c.03-.04.05-.04.07.01.01.02.03.04.04.06.02.03.04.05.06.07l.01-.04c.01-.04.01-.07-.02-.08s-.05-.06-.02-.12c.02-.04.03-.08.05-.12l.01.04.04-.12.05.05v-.14c.03.07.04.08.08.08-.01-.02-.02-.03-.02-.05v-.07c.02,0,.03-.01.05,0,.01.02.02.04.02.06.01.04.01.07.01.11,0,.08-.02.11-.06.08-.01-.01-.02-.01-.03-.02.01.08.04.1.08.11-.03.08-.07.11-.13.09.04.07.07.09.12.05.03-.02.04-.01.04.04,0,.02.01.05.01.08l.01-.07q.01-.07.05-.05c.04.02.08.01.12-.06-.07.02-.1,0-.13-.08.06-.03.07-.04.07-.1-.01.01-.03.02-.04.02s-.03-.01-.04-.02c-.02-.08-.01-.17.03-.24.02-.01.03,0,.04.01v.07c-.01.02-.01.04-.02.06.04,0,.06-.02.08-.08v.14l.05-.06.04.13.01-.05c.02.04.04.08.05.12.03.06.02.11-.03.13-.02.01-.03.03-.02.07s.01.04.01.06l.03-.04c.03-.04.05-.08.08-.11.01-.02.04-.03.05-.01.02.03.03.04.05.01h.02l-.02-.07.06.01c-.01-.04-.01-.07.02-.07-.01-.02-.01-.04-.02-.05-.01-.01-.02-.02-.03-.02-.03.03-.07.06-.1.09-.01.01-.04.02-.05,0-.03-.05-.06-.11-.08-.17l.04.02-.04-.1.05-.06v-.01c-.03.02-.05.01-.06-.03l.03-.11c-.06.03-.08.03-.11-.03-.03-.07-.04-.14-.03-.22.01.13.02.18.06.17s.04-.03.04-.08c-.04.04-.05.02-.05-.05,0-.03.01-.07.01-.1h.01l.02.06.02-.18v.01l.02-.03c-.02.06-.02.13.02.18.01-.05.02-.1.02-.15s.02-.08.02-.13c0,.06-.02.11.01.16s.05.08.07.12l.01-.01-.03-.21c.04.06.07.13.13.12l-.03-.21c.06.07.13.12.21.15l-.15-.26c.08.05.17.11.26.09l-.21-.24c.09.03.18.03.27.01l-.26-.19c.05-.01.09-.01.14-.01s.1-.02.13-.06l-.27-.11v-.01c.05-.01.1-.02.14-.03M90.79,76.14s.01-.06.04-.03-.04.03-.04.03"/>
    <path class="st0" d="M91.68,67.34c-.02,0-.04,0-.07-.01-2.57-.78-5.22-1.25-7.9-1.42-2.2-.14-4.41-.09-6.6.16-2.11.21-4.19.63-6.21,1.26-.12.04-.25-.02-.29-.14h0c-.01-.04-.02-.08-.01-.12.05-.43-.01-.87-.18-1.28-.5-1.12-1.37-2.03-2.47-2.56-.11-.06-.15-.2-.09-.31.03-.05.08-.09.14-.11.41-.1.82-.16,1.24-.18.79-.08,1.59.07,2.29.44.54.32.92.85,1.05,1.46.03.12-.05.24-.18.27-.08.02-.17-.01-.22-.08-.12-.15-.32-.22-.51-.19-.08.01-.14.13-.15.28-.01.26.15.59.65.72.13.05.27.03.38-.05.3-.23.35-.94.35-1.17,0-.1.06-.19.16-.22l.47-.15c.12-.04.25.03.28.14h0v.02c.08.32.29.59.59.73.2.08.43.04.6-.09.18-.16.26-.4.21-.63-.03-.22-.12-.26-.15-.28-.25-.06-.52-.02-.74.12-.11.05-.25.01-.3-.11-.02-.03-.02-.07-.02-.1.01-.52.25-1.01.66-1.34-.11-.56.05-1.14.42-1.57.07-.07.17-.09.26-.04.5.28.84.78.92,1.35.57.08,1.03.52,1.14,1.09.02.12-.05.24-.18.27-.03.01-.06.01-.09,0-.25-.06-.5-.02-.72.11-.1.11-.15.25-.13.4.03.19.13.36.28.47.23.1.49.1.72-.02.64-.24.4-1.09.39-1.13-.03-.12.04-.25.15-.28h.01l.41-.09c.12-.03.24.05.27.17h0c.09.47.35.88.74,1.17.27.12.58.11.84-.02.1-.06.87-.55.53-1.17-.13-.24-.29-.33-.46-.29-.23.07-.39.26-.42.5,0,.12-.11.22-.23.22-.09,0-.17-.06-.2-.14-.06-.13-.52-1.34-.07-2.04.21-.3.55-.48.92-.47h.05c.07.01.13.04.19.06.04-.58.18-1.47.75-1.73.03-.01.06-.02.09-.02h.1c.03,0,.06.01.09.02.57.26.72,1.15.75,1.73.06-.03.13-.05.19-.06h.05c.37-.01.71.16.92.47.45.7-.01,1.9-.07,2.04-.05.12-.18.17-.29.12-.08-.03-.14-.11-.14-.2-.03-.24-.2-.43-.42-.5-.18-.04-.33.06-.46.29-.35.62.43,1.11.53,1.17.26.14.58.15.85.02.38-.28.65-.7.73-1.17.02-.12.14-.2.26-.18h0l.41.09c.12.03.2.15.17.27v.02c-.01.03-.25.88.39,1.13.21.11.45.12.66.03.15-.11.26-.27.29-.46.02-.15-.03-.3-.13-.42-.2-.12-.44-.17-.67-.12-.12.02-.24-.06-.26-.18-.01-.03-.01-.06,0-.09.1-.56.54-1,1.1-1.12.08-.57.44-1.07.96-1.33.09-.04.18-.02.25.05.38.43.53,1.01.42,1.57.42.33.69.82.75,1.36.02.12-.07.24-.2.25h0c-.04.01-.09,0-.12-.02-.25-.15-.55-.2-.84-.13-.05.03-.12.08-.15.25-.05.23.03.47.21.63.17.14.4.17.6.09.3-.14.51-.41.59-.73.03-.12.15-.2.27-.17h.02l.47.15c.09.03.16.12.16.22,0,.23.05.94.35,1.17.11.08.25.1.38.05.49-.13.66-.46.65-.72,0-.14-.07-.26-.15-.28-.19-.04-.39.04-.51.19-.08.1-.22.12-.32.04-.07-.05-.1-.14-.08-.22.13-.61.51-1.14,1.04-1.46.7-.37,1.5-.53,2.29-.44.42.02.83.08,1.24.18.12.03.19.16.16.28-.02.06-.05.11-.11.14-3.04,1.69-2.73,3.83-2.72,3.85.02.12-.06.24-.19.26h0c-.01,0-.02,0-.03.01ZM81.32,65.38c.81,0,1.61.03,2.41.08,2.61.16,5.19.62,7.7,1.35.02-.39.1-.78.24-1.14.46-1.05,1.23-1.93,2.21-2.52-.89-.17-1.8-.06-2.62.32-.26.15-.47.36-.62.62.11-.02.22-.01.33.01.32.08.53.37.52.7,0,.58-.42,1.07-.98,1.17-.26.09-.55.04-.77-.13-.34-.37-.53-.86-.52-1.36l-.1-.03c-.14.37-.43.67-.8.82-.35.13-.75.07-1.05-.16-.3-.26-.45-.66-.37-1.05.02-.25.17-.46.38-.58.26-.11.56-.12.83-.03-.07-.3-.27-.55-.54-.68-.11-.04-.18-.16-.15-.28.1-.4.04-.83-.16-1.19-.34.24-.55.63-.57,1.04-.01.11-.1.2-.21.21-.32.03-.61.21-.77.49.25,0,.49.09.69.24.22.2.32.5.29.79v.02c-.05.32-.23.61-.5.79-.33.17-.73.17-1.06,0-.52-.22-.82-.78-.72-1.34-.14.48-.45.9-.88,1.17-.39.19-.86.19-1.25-.02l-.02-.01c-.45-.25-1.17-.96-.71-1.79.15-.38.56-.6.96-.51.19.05.36.15.5.3.11-.36.09-.74-.06-1.08-.12-.17-.32-.26-.53-.26-.11.03-.21.1-.27.21-.05.11-.19.16-.3.11-.08-.04-.14-.12-.13-.22.03-.57-.08-1.54-.45-1.78-.42.27-.47,1.39-.45,1.78.01.12-.09.23-.22.24-.09,0-.18-.05-.21-.13-.06-.1-.16-.18-.27-.21-.21-.01-.41.09-.53.26-.15.34-.17.72-.06,1.08.13-.15.31-.25.5-.3.4-.09.81.13.96.51.3.69-.02,1.49-.71,1.79h0l-.02.01c-.39.2-.85.21-1.25.02-.42-.27-.73-.68-.88-1.16.11.56-.2,1.12-.73,1.34-.35.17-.77.16-1.11-.02-.27-.19-.45-.48-.49-.81v-.01c-.04-.29.07-.58.28-.78.21-.16.46-.25.73-.24-.17-.27-.47-.44-.79-.45-.12,0-.22-.09-.22-.21-.02-.42-.22-.81-.54-1.07-.2.36-.26.78-.16,1.18.03.12-.03.24-.15.28-.26.12-.44.37-.48.65.25-.08.52-.07.77.03.22.13.37.35.39.61.08.39-.06.79-.37,1.05-.29.24-.69.3-1.05.16-.37-.15-.66-.45-.8-.82l-.1.03c.01.5-.17.99-.52,1.36-.22.17-.51.22-.77.13-.57-.1-.98-.59-.98-1.17-.01-.33.2-.62.52-.7.11-.02.22-.02.33-.01-.15-.26-.36-.47-.62-.62-.82-.38-1.74-.49-2.62-.32.97.59,1.74,1.47,2.17,2.52.13.36.2.74.21,1.13,1.95-.57,3.95-.97,5.98-1.18,1.46-.15,2.89-.23,4.31-.23Z"/>
    <path class="st0" d="M78.07,63.39c-.43,0-.78-.35-.78-.78s.35-.78.78-.78.78.35.78.78-.35.78-.78.78h0ZM78.07,62.29c-.18,0-.33.14-.33.32s.14.33.32.33.33-.14.33-.32h0c0-.18-.14-.33-.32-.33h0Z"/>
    <path class="st0" d="M73.17,64.45c-.43,0-.78-.35-.78-.78s.35-.78.78-.78.78.35.78.78h0c0,.43-.35.78-.78.78ZM73.17,63.35c-.18,0-.33.15-.33.33s.15.32.33.32.33-.15.33-.33h0c0-.17-.15-.32-.33-.32Z"/>
    <path class="st0" d="M84.53,63.39c-.43,0-.78-.35-.78-.78s.35-.78.78-.78.78.35.78.78-.35.78-.78.78h0ZM84.53,62.29c-.18,0-.33.14-.33.32s.14.33.32.33.33-.14.33-.32h0c0-.18-.14-.33-.32-.33Z"/>
    <path class="st0" d="M89.45,64.38c-.43,0-.78-.35-.78-.78s.35-.78.78-.78.78.35.78.78h0c-.01.43-.35.78-.78.78ZM89.45,63.28c-.18,0-.33.14-.33.32s.14.33.32.33.33-.14.33-.32h0c.01-.18-.14-.33-.32-.33h0Z"/>
    <path class="st0" d="M32.67,86.03l.13.01h.02c.02-.07.12-.08.12-.17.01-.09.02-.17.03-.26h.02c.01.05.03.09.04.14,0,.13-.03.26-.08.39,0,.01-.01.02-.01.04.09,0,.18.06.24-.05,0-.02-.05-.06.01-.09,0-.01,0-.03-.01-.04-.05-.15-.05-.31.01-.45.03-.12.06-.25.07-.38.03-.05.08-.09.14-.09.19.01.37.02.56.03l.04.34h.02v-.05c0-.02-.01-.04-.01-.06.02-.07.04-.14.06-.22,0-.01.01-.01.02-.01l.25-.07c.03.07.05.15.08.22.02.05.04.09.06.14s.04.11.04.16c0,.12-.02.24-.06.36-.02.05-.04.1-.07.14.16.08.18.07.19-.07l.07.01c0-.01.01-.01.01-.02-.01-.11,0-.22.05-.32.02-.08.03-.16.05-.25.08.12.11.27.08.41-.01.04-.01.08-.02.13-.01.05-.03.1-.07.14-.02.03-.03.05-.04.08l.09.03h.02q.09,0,.1-.09v-.05h.06c0-.2.02-.4.07-.6.01-.06.01-.13-.01-.18-.05-.14-.07-.3-.06-.45.01-.11.03-.21.05-.32,0-.02.01-.03.02-.04,0,.14-.01.27,0,.41s.03.25.04.38c.02.07.02.15.01.23,0,.03,0,.05.01.08h.03c.01-.03.01-.06.02-.09v-.02c.03-.1.02-.21-.03-.3-.02-.06-.02-.13-.01-.2.04-.22.03-.45-.04-.66-.01-.05-.03-.09-.04-.13-.03-.05-.06-.09-.1-.13-.01-.01-.04-.05-.06-.06-.07-.01-.14-.03-.21-.04-.05-.01-.11-.01-.16-.01h-.2c-.14,0-.29,0-.43-.01-.12-.01-.24,0-.36.02h-.02c-.15-.02-.3-.04-.45-.07-.08-.02-.15-.05-.22-.09.12-.11.19-.27.2-.43.01-.07.02-.13.03-.2l-.02-.01c-.02.02-.03.05-.04.07-.03.08-.05.16-.08.24-.04.11-.14.19-.26.2-.01,0-.03-.01-.04-.02-.03-.02-.06-.05-.09-.04-.05.01-.1-.01-.13-.05-.12-.11-.22-.25-.28-.4-.02-.08-.03-.16-.06-.24,0,.02-.01.04-.01.06-.01.17.03.34.12.49.03.05.06.1.08.15.02.04,0,.07-.04.09-.02.01-.03.03-.04.05-.04.16-.12.3-.23.42-.05.04-.06.12-.02.17.02.02.04.03.07.04.06.02.14,0,.2.09s.12.07.2.11c.04.02.05.08.08.12.02.04.04.09.06.13.01.03.02.05.02.08,0,.05.02.09.06.11.05.03.1.06.14.09.05.03.08.08.08.14,0,.13.02.25.02.38.01.12-.03.24-.1.33-.05.03-.07.06-.08.08"/>
  </g>
  <g>
    <g>
      <path class="st0" d="M317.11,54.1c-1.49,1.04-3.35,1.45-5.2,1.45-1.61,0-3.19-.24-4.61-.93-.54-.27-.58-.48-.58-1.4,0-1.7.14-3.07.17-3.61.02-.24.06-.66.4-.66.32,0,.36.22.36.5,0,.41.01.83.1,1.23.49,2.43,2.66,3.37,4.91,3.37,3.19,0,4.73-2.28,4.73-4.39,0-2.29-.95-3.61-3.86-6.02l-1.53-1.26c-3.62-2.97-4.46-5.11-4.46-7.47,0-3.72,2.79-6.24,7.16-6.24,1.33,0,2.33.14,3.19.34.64.14.9.17,1.16.17.27,0,.46.07.46.36,0,.17-.14,1.29-.14,3.6,0,.23.02.91-.36.91-.32,0-.36-.31-.39-.55-.03-.4-.24-1.3-.43-1.65-.18-.34-1.06-1.74-4.14-1.74-2.29,0-4.05,1.42-4.05,3.82,0,1.87.9,2.99,4.1,5.61l.95.75c4.03,3.17,5.01,5.31,5.01,8.08-.01,1.41-.56,4.04-2.95,5.73Z"/>
      <path class="st1" d="M179.74,40.2c1.21,1.36,5.49,6.14,9.88,10.87,4.01,4.32,9.47,9.88,9.88,10.26,2.01,2.01,2.46,2.42,2.76,2.42.27,0,.34-.19.34-2.69l.08-22.19c0-2.27.15-3.11,1.4-3.37.45-.11.72-.11.91-.11.27,0,.42-.11.42-.27,0-.23-.26-.27-.68-.27-1.55,0-2.8.11-3.22.11s-2.23-.11-3.94-.11c-.45,0-.76.04-.76.27,0,.15.04.27.3.27.3,0,1.17.04,1.86.19,1.17.3,1.44,1.14,1.48,3.6l.42,19.24c-1.21-1.25-5.34-5.87-9.09-9.88-5.83-6.25-11.47-12.35-12.04-12.99-.38-.38-1.02-1.21-1.33-1.21-.3,0-.42.42-.42,1.89l-.04,21.7c0,3.45-.19,4.54-1.14,4.81-.57.19-1.25.23-1.55.23-.19,0-.3.08-.3.23,0,.27.23.3.61.3,1.7,0,3.29-.11,3.64-.11.34,0,1.86.11,4.01.11.45,0,.68-.08.68-.3,0-.15-.11-.23-.3-.23-.34,0-1.17-.04-1.89-.23-1.02-.3-1.4-1.29-1.48-4.39l-.49-18.15Z"/>
      <path class="st1" d="M218.53,45.84c0-5.91,0-6.97.08-8.18.08-1.33.38-1.97,1.4-2.16.45-.08.68-.11.95-.11.15,0,.3-.08.3-.23,0-.23-.19-.3-.61-.3-1.14,0-3.52.11-3.71.11s-2.58-.11-3.82-.11c-.42,0-.61.08-.61.3,0,.15.15.23.3.23.27,0,.76.04,1.17.15.83.19,1.21.83,1.29,2.12.08,1.21.08,2.27.08,8.18v6.67c0,3.64,0,6.63-.19,8.22-.15,1.1-.34,1.93-1.1,2.08-.34.08-.8.15-1.14.15-.23,0-.3.11-.3.23,0,.23.19.3.61.3,1.14,0,3.52-.11,3.71-.11s2.58.11,4.66.11c.42,0,.61-.11.61-.3,0-.11-.08-.23-.3-.23-.34,0-1.17-.08-1.7-.15-1.14-.15-1.36-.98-1.48-2.08-.19-1.59-.19-4.58-.19-8.22v-6.67h-.01Z"/>
      <path class="st1" d="M233.09,39.48c-.57-1.48-1.02-2.65-1.02-3.14,0-.27.08-.57.49-.76.34-.15,1.02-.19,1.44-.19.27,0,.38-.08.38-.27s-.34-.27-1.02-.27c-1.44,0-3.14.11-3.52.11-.45,0-2.61-.11-4.43-.11-.61,0-.98.04-.98.27,0,.15.08.27.3.27.23,0,.87,0,1.44.15,1.33.38,1.89.8,2.73,2.92l9.28,23.21c.72,1.82.91,2.35,1.36,2.35.38,0,.53-.61,1.59-2.88.87-1.86,2.58-5.95,4.89-11.47,1.93-4.66,3.82-9.2,4.24-10.26,1.02-2.58,1.59-3.22,2.08-3.56.72-.45,1.55-.45,1.82-.45.3,0,.45-.08.45-.27s-.23-.27-.64-.27c-1.1,0-2.73.11-2.95.11-.45,0-2.2-.11-3.71-.11-.61,0-.83.08-.83.3,0,.19.19.23.42.23.42,0,.98,0,1.44.15.38.19.49.57.49.87,0,.34-.15.87-.34,1.44-.83,2.73-5.91,15.94-8.1,21.02l-7.3-19.39Z"/>
      <path class="st1" d="M260.46,52.5c0,3.64,0,6.63-.19,8.22-.15,1.1-.34,1.93-1.1,2.08-.34.08-.8.15-1.14.15-.23,0-.3.11-.3.23,0,.23.19.3.61.3,1.14,0,3.52-.11,3.71-.11,1.1,0,3.64.23,9.35.23,1.48,0,1.78,0,2.04-.98.19-.8.49-3.37.49-3.67,0-.27,0-.57-.23-.57-.19,0-.27.15-.34.57-.27,1.55-.72,2.31-1.7,2.73s-2.65.42-3.64.42c-3.71,0-4.28-.49-4.39-3.11-.04-.8,0-5.19,0-6.48v-3.33c0-.15.08-.27.26-.27.64,0,4.39.08,5.42.19,1.48.15,1.82.8,1.97,1.33.15.49.15.87.15,1.25,0,.19.08.34.27.34.27,0,.27-.42.27-.72,0-.26.08-1.67.15-2.42.11-1.25.3-1.89.3-2.12s-.08-.3-.19-.3c-.15,0-.3.19-.57.49-.34.38-.87.45-1.78.53-.87.08-5.53.08-6.02.08-.19,0-.23-.11-.23-.38v-10.47c0-.27.08-.38.23-.38.42,0,4.54.04,5.19.11,2.04.23,2.42.68,2.69,1.29.19.45.23,1.1.23,1.36,0,.3.08.49.3.49.15,0,.23-.23.26-.42.08-.45.15-2.12.19-2.5.11-1.06.3-1.51.3-1.78,0-.19-.04-.34-.15-.34-.19,0-.34.15-.53.19-.3.08-.91.15-1.63.19-.87.04-8.41.04-8.67.04-.19,0-2.58-.11-4.28-.11-.42,0-.61.08-.61.3,0,.15.15.23.3.23.34,0,.98.04,1.29.11,1.25.27,1.55.87,1.63,2.16.08,1.21.08,2.27.08,8.18v6.67h.01Z"/>
      <path class="st1" d="M330.62,45.84c0-5.91,0-6.97.08-8.18.08-1.33.38-1.97,1.4-2.16.45-.08.68-.11.95-.11.15,0,.3-.08.3-.23,0-.23-.19-.3-.61-.3-1.14,0-3.52.11-3.71.11s-2.58-.11-3.82-.11c-.42,0-.61.08-.61.3,0,.15.15.23.3.23.27,0,.76.04,1.17.15.83.19,1.21.83,1.29,2.12.07,1.21.07,2.27.07,8.18v6.67c0,3.64,0,6.63-.19,8.22-.15,1.1-.34,1.93-1.1,2.08-.34.08-.79.15-1.14.15-.23,0-.3.11-.3.23,0,.23.19.3.61.3,1.14,0,3.52-.11,3.71-.11s2.58.11,4.66.11c.42,0,.61-.11.61-.3,0-.11-.08-.23-.3-.23-.34,0-1.17-.08-1.7-.15-1.14-.15-1.36-.98-1.48-2.08-.19-1.59-.19-4.58-.19-8.22v-6.67h0Z"/>
      <path class="st1" d="M148.4,31.77c-.73-1.91-1.32-3.43-1.32-4.06,0-.34.1-.73.64-.98.44-.2,1.32-.24,1.86-.24.34,0,.49-.1.49-.34s-.44-.34-1.32-.34c-1.86,0-4.06.15-4.55.15-.59,0-3.38-.15-5.73-.15-.78,0-1.27.05-1.27.34,0,.2.1.34.39.34s1.13,0,1.86.2c1.71.49,2.45,1.03,3.52,3.77l11.99,30.01c.93,2.35,1.17,3.04,1.76,3.04.49,0,.69-.78,2.06-3.72,1.13-2.4,3.33-7.69,6.31-14.83,2.5-6.02,4.94-11.89,5.48-13.27,1.32-3.33,2.06-4.16,2.69-4.6.93-.59,2.01-.59,2.35-.59.39,0,.59-.1.59-.34s-.29-.34-.83-.34c-1.42,0-3.52.15-3.82.15-.59,0-2.84-.15-4.8-.15-.78,0-1.08.1-1.08.39,0,.24.24.29.54.29.54,0,1.27,0,1.86.2.49.24.64.73.64,1.13,0,.44-.2,1.13-.44,1.86-1.08,3.52-7.64,20.61-10.48,27.17l-9.39-25.09Z"/>
      <path class="st1" d="M393.15,63.18c-.04-.19-.2-.23-.43-.23-.38,0-.95-.04-1.56-.23-.84-.23-2.07-.83-4.14-4.2-3.52-5.76-12.75-21.4-13.63-22.84-.7-1.17-.89-1.36-1.12-1.36s-.33.23-.52,1.48l-3.65,23.52c-.28,1.89-.74,3.33-2.43,3.56-.29.04-.82.08-1.08.08-.19,0-.33.08-.29.23.05.23.29.3.78.3,1.78,0,3.84-.11,4.25-.11.42,0,2.07.11,2.98.11.34,0,.55-.08.5-.3-.03-.15-.16-.23-.43-.23h-.38c-.64,0-1.51-.34-1.67-1.1-.14-.68-.15-1.59,0-2.54l.86-6.7c.04-.19.13-.3.31-.3h8.14c.19,0,.28.08.39.23l5.48,9.32c.35.61.2.95-.01,1.02-.14.04-.24.11-.21.27.05.23.46.23,1.19.26,2.63.08,5.39.08,5.96.08.43-.01.76-.09.71-.32ZM378.88,50.95h-7.23c-.11,0-.21-.08-.17-.27l1.18-10.22c.07-.57.26-.57.57,0l5.75,10.22c.06.16.09.27-.1.27Z"/>
      <path class="st1" d="M352.3,36.48l4.77.08c3.64.08,4.51.95,4.66,2.08l.04.42c.04.53.11.64.3.64.15,0,.27-.15.27-.49,0-.42.11-3.03.11-4.17,0-.23,0-.45-.19-.45-.3,0-1.33.38-3.75.38h-14.2c-.45,0-1.89-.08-2.99-.19-1.02-.08-1.4-.45-1.67-.45-.15,0-.3.49-.38.72-.08.3-.83,3.56-.83,3.94,0,.23.08.34.19.34.15,0,.27-.08.38-.38.11-.26.23-.53.64-1.17.61-.91,1.51-1.17,3.86-1.21l5.61-.08v16.01c0,3.64,0,6.63-.19,8.22-.15,1.1-.34,1.93-1.1,2.08-.34.08-.79.15-1.14.15-.23,0-.3.11-.3.23,0,.23.19.3.61.3,1.14,0,3.52-.11,3.71-.11s2.57.11,4.66.11c.42,0,.61-.11.61-.3,0-.11-.08-.23-.3-.23-.34,0-1.17-.08-1.7-.15-1.14-.15-1.36-.98-1.48-2.08-.19-1.59-.19-4.58-.19-8.22v-16.02h-.01Z"/>
      <path class="st1" d="M402.27,36.48l4.77.08c3.64.08,4.51.95,4.66,2.08l.04.42c.04.53.11.64.3.64.15,0,.27-.15.27-.49,0-.42.11-3.03.11-4.17,0-.23,0-.45-.19-.45-.3,0-1.33.38-3.75.38h-14.2c-.45,0-1.89-.08-2.99-.19-1.02-.08-1.4-.45-1.67-.45-.15,0-.3.49-.38.72-.08.3-.83,3.56-.83,3.94,0,.23.08.34.19.34.15,0,.27-.08.38-.38.11-.26.23-.53.64-1.17.61-.91,1.51-1.17,3.86-1.21l5.6-.08v16.01c0,3.64,0,6.63-.19,8.22-.15,1.1-.34,1.93-1.1,2.08-.34.08-.8.15-1.14.15-.23,0-.3.11-.3.23,0,.23.19.3.61.3,1.14,0,3.52-.11,3.71-.11s2.58.11,4.66.11c.42,0,.61-.11.61-.3,0-.11-.08-.23-.3-.23-.34,0-1.17-.08-1.7-.15-1.14-.15-1.36-.98-1.48-2.08-.19-1.59-.19-4.58-.19-8.22v-16.02h0Z"/>
      <path class="st1" d="M316.73,61.01c-.94.26-1.63,1.03-2.56,1.25-3.59.72-7.77,1.48-9.98-2.02-2.2-3.61-4.61-8.19-8.92-9.6,3.4-3.14,4.57-5.94,4.57-8.73,0-2.61-1.67-4.47-2.61-5.15-2.01-1.44-4.54-1.67-6.93-1.67-1.17,0-4.05.11-4.47.11-.19,0-2.58-.11-4.28-.11-.42,0-.61.08-.61.3,0,.15.15.23.3.23.34,0,.98.04,1.29.11,1.25.27,1.55.87,1.63,2.16.08,1.21.08,2.27.08,8.18v6.67c0,3.64,0,6.63-.19,8.22-.15,1.1-.34,1.93-1.1,2.08-.34.08-.8.15-1.14.15-.23,0-.3.11-.3.23,0,.23.19.3.61.3,1.14,0,3.52-.11,3.56-.11.19,0,2.58.11,4.66.11.42,0,.61-.11.61-.3,0-.11-.08-.23-.3-.23-.34,0-1.17-.08-1.7-.15-1.14-.15-1.36-.98-1.48-2.08-.19-1.59-.19-4.58-.19-8.22v-.91c0-.19.08-.3.26-.3l4.66.08c3.85,2.54,5.69,6.61,8.57,9.95,3.48,3.75,9.15,3.87,13.37,2.08.91-.72,2.78-1.31,2.59-2.63ZM294.34,49.72c-.87.61-1.93.72-2.84.72-1.67,0-3.41-.27-3.98-.61-.19-.11-.26-.26-.26-.45v-12.39c0-.23.11-.38.3-.45.38-.11,1.4-.23,2.54-.23,4.05,0,6.55,2.84,6.55,7.57,0,2.88-.98,4.93-2.31,5.84Z"/>
    </g>
    <g>
      <path class="st1" d="M167.56,84.9c-5.47-4.62-13.88-4.28-18.43-4.28-2.76,0-5.65.11-6.2.11-.23,0-3.12-.11-5.19-.11-.51,0-.74.08-.74.3,0,.15.18.23.37.23.41,0,1.19.04,1.56.11,1.52.26,1.88.86,1.98,2.14.09,1.2.09,2.25.09,8.11v6.61c0,3.61,0,6.57-.23,8.15-.18,1.09-.41,1.92-1.33,2.07-.41.08-.96.15-1.38.15-.28,0-.37.11-.37.23,0,.23.23.3.74.3,1.38,0,4.27-.11,4.5-.11.46,0,6.25.45,10.2.45,7.81,0,11.95-2.63,13.92-4.32,2.57-2.22,4.96-5.86,4.96-10.59,0-4.48-2.16-7.59-4.45-9.55ZM165.75,104.59c-2.71,2.22-8.21,3.49-12.49,3.49-5.42,0-7.21-.79-7.81-1.5-.37-.41-.46-1.92-.51-2.85-.05-.71-.09-4.17-.09-8.15v-4.66c0-2.89,0-6.72.05-8,0-.41.14-.6.55-.75.37-.15,2.07-.26,2.99-.26,5.47,0,12.26.53,16.58,4.24,1.88,1.62,4.41,4.7,4.41,9.47,0,3.44-1.29,7.05-3.68,8.97Z"/>
      <path class="st1" d="M152.25,97.36c0,2.33,0,4.24-.12,5.26-.1.7-.22,1.24-.7,1.33-.22.05-.51.1-.73.1-.15,0-.19.07-.19.14,0,.15.12.19.39.19.73,0,2.25-.07,2.38-.07.7,0,2.33.15,5.99.15.95,0,1.14,0,1.31-.63.12-.51.32-2.16.32-2.35,0-.17,0-.36-.15-.36-.12,0-.17.1-.22.36-.17.99-.46,1.48-1.09,1.75-.63.27-1.7.27-2.33.27-2.38,0-2.74-.31-2.81-1.99-.02-.51,0-3.32,0-4.15v-2.13c0-.1.05-.17.17-.17.41,0,2.81.05,3.47.12.95.1,1.16.51,1.26.85.1.31.1.56.1.8,0,.12.05.22.17.22.17,0,.17-.27.17-.46,0-.17.05-1.07.1-1.55.07-.8.19-1.21.19-1.36s-.05-.19-.12-.19c-.1,0-.19.12-.36.32-.22.24-.56.29-1.14.34-.56.05-3.54.05-3.86.05-.12,0-.15-.07-.15-.24v-6.69c0-.17.05-.24.15-.24.27,0,2.91.02,3.32.07,1.31.15,1.55.44,1.72.82.12.29.15.7.15.87,0,.19.05.32.19.32.1,0,.15-.15.17-.27.05-.29.1-1.36.12-1.6.07-.68.19-.97.19-1.14,0-.12-.02-.22-.1-.22-.12,0-.22.1-.34.12-.19.05-.58.1-1.04.12-.56.02-5.38.02-5.55.02-.12,0-1.65-.07-2.74-.07-.27,0-.39.05-.39.19,0,.1.1.15.19.15.22,0,.63.02.82.07.8.17.99.56,1.04,1.38.05.78.05,1.45.05,5.24v4.26h0Z"/>
    </g>
    <g>
      <g>
        <path class="st1" d="M300.3,77.62c.19,0,.34-.08.34-.19,0-.15-.34-.26-.72-.53-1.55-.98-4.26-2.86-4.57-3.16-.34-.34-.38-.61-.57-.61-.15,0-.3.08-.61.19-.45.19-1.48.49-2.27.72-.27.08-.42.11-.42.3s.3.34,1.1.64c.62.23,7.04,2.64,7.72,2.64Z"/>
        <path class="st1" d="M292.8,98.18c0,3.64,0,6.63-.19,8.22-.15,1.1-.34,1.93-1.1,2.08-.34.08-.79.15-1.14.15-.23,0-.3.11-.3.23,0,.23.19.3.61.3,1.14,0,3.52-.11,3.71-.11,1.1,0,3.64.23,9.35.23,1.48,0,1.78,0,2.04-.98.19-.8.49-3.37.49-3.67,0-.27,0-.57-.23-.57-.19,0-.27.15-.34.57-.27,1.55-.72,2.31-1.7,2.73-.98.42-2.65.42-3.64.42-3.71,0-4.28-.49-4.39-3.11-.04-.79,0-5.19,0-6.48v-3.33c0-.15.08-.27.27-.27.64,0,4.39.08,5.42.19,1.48.15,1.82.79,1.97,1.33.15.49.15.87.15,1.25,0,.19.08.34.27.34.27,0,.27-.42.27-.72,0-.27.08-1.67.15-2.42.11-1.25.3-1.89.3-2.12s-.08-.3-.19-.3c-.15,0-.3.19-.57.49-.34.38-.87.45-1.78.53-.87.08-5.53.08-6.02.08-.19,0-.23-.11-.23-.38v-10.47c0-.27.08-.38.23-.38.42,0,4.54.04,5.19.11,2.05.23,2.42.68,2.69,1.29.19.45.23,1.1.23,1.36,0,.3.08.49.3.49.15,0,.23-.23.26-.42.08-.45.15-2.12.19-2.5.11-1.06.3-1.52.3-1.78,0-.19-.04-.34-.15-.34-.19,0-.34.15-.53.19-.3.08-.91.15-1.63.19-.87.04-8.41.04-8.67.04-.19,0-2.58-.11-4.28-.11-.42,0-.61.08-.61.3,0,.15.15.23.3.23.34,0,.98.04,1.29.11,1.25.27,1.55.87,1.63,2.16.08,1.21.08,2.27.08,8.18v6.67h0Z"/>
      </g>
      <path class="st1" d="M216.33,77.32c-.73-1.91-1.32-3.43-1.32-4.06,0-.34.1-.73.64-.98.44-.2,1.32-.25,1.86-.25.34,0,.49-.1.49-.34,0-.25-.44-.34-1.32-.34-1.86,0-4.06.15-4.55.15-.59,0-3.38-.15-5.73-.15-.78,0-1.27.05-1.27.34,0,.19.1.34.39.34s1.13,0,1.86.2c1.71.49,2.45,1.03,3.52,3.77l11.98,30c.93,2.35,1.17,3.04,1.76,3.04.49,0,.68-.78,2.06-3.72,1.13-2.4,3.33-7.68,6.31-14.83,2.5-6.02,4.94-11.89,5.48-13.27,1.32-3.33,2.06-4.16,2.69-4.6.93-.59,2.01-.59,2.35-.59.39,0,.59-.1.59-.34,0-.25-.29-.34-.83-.34-1.42,0-3.52.15-3.82.15-.59,0-2.84-.15-4.8-.15-.78,0-1.08.1-1.08.39,0,.25.24.29.54.29.54,0,1.27,0,1.86.2.49.25.64.73.64,1.13,0,.44-.2,1.13-.44,1.86-1.08,3.52-7.64,20.61-10.48,27.17l-9.38-25.07Z"/>
      <path class="st1" d="M422.78,108.95c-.04-.19-.2-.23-.43-.23-.38,0-.95-.04-1.56-.23-.84-.23-2.07-.83-4.14-4.2-3.52-5.76-12.75-21.4-13.62-22.84-.7-1.17-.89-1.36-1.12-1.36s-.33.23-.52,1.48l-3.65,23.52c-.28,1.89-.74,3.33-2.43,3.56-.29.04-.82.08-1.08.08-.19,0-.32.08-.29.23.05.23.29.3.78.3,1.78,0,3.84-.11,4.26-.11s2.07.11,2.98.11c.34,0,.55-.08.5-.3-.03-.15-.16-.23-.43-.23h-.38c-.64,0-1.51-.34-1.67-1.1-.14-.68-.15-1.59,0-2.54l.86-6.7c.04-.19.13-.3.31-.3h8.14c.19,0,.28.08.39.23l5.48,9.32c.35.61.2.95-.01,1.02-.14.04-.24.11-.21.27.05.23.46.23,1.19.27,2.63.08,5.39.08,5.96.08.42-.03.74-.1.69-.33ZM408.51,96.72h-7.23c-.11,0-.21-.08-.17-.26l1.18-10.23c.07-.57.26-.57.57,0l5.75,10.23c.07.14.09.26-.1.26Z"/>
      <path class="st1" d="M261.67,108.55c-.38,0-.95-.04-1.51-.23-.8-.23-1.89-.83-3.26-4.2-2.31-5.76-8.26-21.4-8.82-22.84-.45-1.17-.61-1.36-.83-1.36-.23,0-.38.23-.83,1.48l-8.6,23.52c-.68,1.89-1.44,3.33-3.18,3.56-.3.04-.83.08-1.1.08-.19,0-.34.08-.34.23,0,.23.23.3.72.3,1.78,0,3.86-.11,4.28-.11s2.05.11,2.95.11c.34,0,.57-.08.57-.3,0-.15-.11-.23-.38-.23h-.38c-.64,0-1.44-.34-1.44-1.1,0-.68.19-1.59.53-2.54l2.27-6.7c.08-.19.19-.3.38-.3h8.14c.19,0,.27.08.34.23l3.52,9.32c.23.61,0,.95-.23,1.02-.15.04-.27.11-.27.27,0,.23.42.23,1.14.27,2.61.08,5.38.08,5.95.08.42,0,.76-.08.76-.3s-.16-.26-.38-.26ZM250.34,96.54h-7.23c-.11,0-.19-.07-.11-.26l3.33-10.22c.19-.57.38-.57.57,0l3.6,10.22c.03.15.03.26-.16.26Z"/>
      <path class="st1" d="M272.55,91.51c0-5.91,0-6.97.08-8.18.08-1.33.38-1.97,1.48-2.16.45-.08.98-.11,1.25-.11.15,0,.3-.08.3-.23,0-.23-.19-.3-.61-.3-1.14,0-3.9.11-4.09.11s-2.58-.11-4.28-.11c-.42,0-.61.08-.61.3,0,.15.15.23.3.23.34,0,.98.04,1.29.11,1.25.27,1.55.87,1.63,2.16.08,1.21.08,2.27.08,8.18v6.66c0,3.64,0,6.63-.19,8.22-.15,1.1-.34,1.93-1.1,2.08-.34.08-.8.15-1.14.15-.23,0-.3.11-.3.23,0,.23.19.3.61.3,1.14,0,3.37-.11,3.71-.11,2.2,0,4.7.23,10.15.23,2.01,0,2.12-.15,2.39-1.02.3-1.1.57-3.37.57-3.79s-.04-.57-.23-.57c-.23,0-.3.19-.34.49-.11.72-.49,1.67-.98,2.27-.91,1.1-2.58,1.14-4.58,1.14-2.95,0-3.94-.27-4.54-.87-.68-.68-.83-3.11-.83-8.67v-6.74h-.02Z"/>
      <path class="st1" d="M317.89,85.87c1.21,1.36,5.49,6.14,9.88,10.87,4.01,4.32,9.47,9.88,9.88,10.26,2.01,2.01,2.46,2.42,2.76,2.42.27,0,.34-.19.34-2.69l.08-22.19c0-2.27.15-3.11,1.4-3.37.45-.11.72-.11.91-.11.27,0,.42-.11.42-.26,0-.23-.27-.27-.68-.27-1.55,0-2.8.11-3.22.11s-2.23-.11-3.94-.11c-.45,0-.76.04-.76.27,0,.15.04.26.3.26.3,0,1.17.04,1.86.19,1.17.3,1.44,1.14,1.48,3.6l.42,19.24c-1.21-1.25-5.34-5.87-9.09-9.88-5.83-6.25-11.47-12.35-12.04-12.99-.38-.38-1.02-1.21-1.33-1.21-.3,0-.42.42-.42,1.89l-.04,21.7c0,3.45-.19,4.54-1.14,4.81-.57.19-1.25.23-1.55.23-.19,0-.3.08-.3.23,0,.27.23.3.61.3,1.7,0,3.3-.11,3.64-.11s1.86.11,4.01.11c.45,0,.68-.08.68-.3,0-.15-.11-.23-.3-.23-.34,0-1.17-.04-1.89-.23-1.02-.3-1.4-1.29-1.48-4.39l-.49-18.15Z"/>
      <path class="st1" d="M366.26,109.69c2.42,0,5.3-.26,6.82-.87.68-.3.76-.38.98-1.1.38-1.29.83-4.58.83-4.85,0-.3-.08-.57-.27-.57-.23,0-.3.15-.38.57-.11.68-.61,2.35-1.4,3.18-1.52,1.55-3.75,1.89-6.59,1.89-8.1,0-13.67-6.63-13.67-13.86,0-3.86.64-7.23,3.41-9.88,1.33-1.29,3.67-2.76,8.71-2.76,3.33,0,6.25,1.02,7.57,2.16.99.83,1.59,2.39,1.59,3.86,0,.53.04.79.3.79.23,0,.3-.23.34-.79.04-.57.04-2.65.11-3.9.08-1.36.19-1.82.19-2.12,0-.23-.08-.38-.49-.42-1.21-.08-2.42-.3-3.86-.57-1.86-.34-3.98-.45-5.49-.45-5.83,0-9.28,1.78-11.55,4.05-3.37,3.37-4.24,7.8-4.24,10.34,0,3.6.91,7.91,4.58,11.21,3.01,2.69,6.83,4.09,12.51,4.09Z"/>
      <path class="st1" d="M387.41,91.51c0-5.91,0-6.97.08-8.18.08-1.33.38-1.97,1.4-2.16.45-.08.68-.11.95-.11.15,0,.3-.08.3-.23,0-.23-.19-.3-.61-.3-1.14,0-3.52.11-3.71.11s-2.58-.11-3.83-.11c-.42,0-.61.08-.61.3,0,.15.15.23.3.23.27,0,.76.04,1.17.15.83.19,1.21.83,1.29,2.12.08,1.21.08,2.27.08,8.18v6.66c0,3.64,0,6.63-.19,8.22-.15,1.1-.34,1.93-1.1,2.08-.34.08-.8.15-1.14.15-.23,0-.3.11-.3.23,0,.23.19.3.61.3,1.14,0,3.52-.11,3.71-.11s2.57.11,4.66.11c.42,0,.61-.11.61-.3,0-.11-.08-.23-.3-.23-.34,0-1.17-.08-1.7-.15-1.14-.15-1.36-.98-1.48-2.08-.19-1.59-.19-4.58-.19-8.22v-6.66h0Z"/>
    </g>
    <g>
      <g>
        <path class="st0" d="M205.99,90.27c-1.81-.24-4.34.4-6.44.19-.04-.16-.06-.31-.08-.47l-.36-1.94c-.41-2.32-1.08-4.54-2.14-6.66-1.38-2.1-3.55-4.15-6.34-4.04-3.33.5-6.22,3.81-7.38,6.77-2.32,5.93-3.87,11.45-3.41,17.86.6,2.78,2.31,6.19,5.52,6.88,0,0,1.61.31,1.89.32-.03,0-.55,8.18-.55,8.18l.54.78c2.78.54,5.99-.6,7.98-2.41,0-.48,0-1.33-.54-1.69-2.05-1.45-4.24.86-5.99,1.34.12-2.15.29-3.9.65-5.99,1.27-.02,2.34-.04,3.42-.28,3.16-.87,3.77-2.3,5.4-4.44,1.38-3.63,1.62-7.89,1.52-11.82,2.29-.36,4.51-.43,6.44-1.63.29-.34-.07-.65-.13-.95ZM195.9,103.88c-1.92,2.68-4.8,3.69-7.93,3.28-2.07-.05-4.24-.61-5.25-2.73-2.53-6.72.51-13.59,2.37-19.71.86-2.27,2.73-4.7,5.46-4.95,2.07-.1,3.84,1.62,4.8,3.33.86,2.17,1.17,2.84,1.61,5.68,0,0,.3,1.41.41,1.65.02.1.01.18.06.28-2.04.24-3.99.16-5.55-1.1-.24.12-.66.57-.72.93,1.13,2.21,3.9,2.48,6.47,2.31.19,3.84-.56,7.64-1.73,11.03Z"/>
        <path class="st0" d="M191.11,84.83c.24,1.15-.36,2.17-1.33,2.6-.78.42-1.69-.36-1.81-1.09-.18-1.21.84-1.99,1.81-2.53.61-.01,1.33.35,1.33,1.02Z"/>
      </g>
      <g>
        <g>
          <polygon class="st1" points="199.51 69.78 194.13 73.86 195.1 75.35 200.92 71.73 199.51 69.78"/>
          <polygon class="st1" points="179.69 69.78 178.25 71.73 184.11 75.35 185.05 73.86 179.69 69.78"/>
        </g>
        <polygon class="st1" points="188.71 73.82 188.37 66.95 190.8 66.95 190.46 73.82 188.71 73.82"/>
      </g>
    </g>
  </g>
</svg>